<svg width="32" height="22" viewBox="0 0 32 22" fill="none" xmlns="http://www.w3.org/2000/svg">
<path d="M6.7698 21.2051V21.3676H6.93225H26.9426H26.9603C29.1396 21.3676 30.9123 19.5949 30.9123 17.4156V2.20416C30.9123 1.43998 30.2891 0.837545 29.5457 0.837545H15.8926H15.7302V1V1.85V2.01245H15.8926H29.5457C29.6508 2.01245 29.7374 2.09909 29.7374 2.20416V17.4156C29.7374 18.955 28.482 20.2104 26.9426 20.2104H6.93225H6.7698V20.3729V21.2051Z" fill="#F3F3F3" stroke="#F3F3F3" stroke-width="0.32491" stroke-miterlimit="10"/>
<path d="M1.83229 18.3747H1.99474V18.2122V5.94037C1.99474 3.76343 3.76367 1.9945 5.94061 1.9945H11.4656H11.628V1.83205V0.999756V0.837301H11.4656H5.94061C3.12381 0.837301 0.837545 3.12357 0.837545 5.94037V18.2122V18.3747H1H1.83229Z" fill="#F3F3F3" stroke="#F3F3F3" stroke-width="0.32491" stroke-miterlimit="10"/>
<path d="M14.8967 14.4356C15.083 14.6086 15.2965 14.7196 15.5237 14.7745L15.465 14.8331H15.8572C16.2141 14.8331 16.5555 14.7133 16.8354 14.4533L16.8355 14.4533L30.2938 1.95122L30.4118 1.84152L30.3031 1.72257L29.7364 1.10278L29.626 0.982011L29.506 1.09331L16.03 13.5954L16.03 13.5953L16.0257 13.5996C15.9297 13.6955 15.767 13.6955 15.671 13.5996L15.6711 13.5995L15.6667 13.5954L4.98862 3.67877L4.86865 3.56736L4.75817 3.68819L4.1915 4.30798L4.08255 4.42715L4.20106 4.53683L14.8967 14.4356Z" fill="#F3F3F3" stroke="#F3F3F3" stroke-width="0.32491" stroke-miterlimit="10"/>
<path d="M12.1249 10.7815L12.0203 10.6572L11.896 10.7618L3.18367 18.093L3.05937 18.1976L3.16397 18.3219L3.69984 18.9587L3.80444 19.083L3.92874 18.9784L12.641 11.6472L12.7653 11.5426L12.6607 11.4183L12.1249 10.7815Z" fill="#F3F3F3" stroke="#F3F3F3" stroke-width="0.32491" stroke-miterlimit="10"/>
<path d="M19.97 10.6681L19.8479 10.561L19.7407 10.6831L19.1917 11.3086L19.0846 11.4307L19.2067 11.5379L27.6051 18.9083L27.7272 19.0154L27.8344 18.8933L28.3834 18.2678L28.4905 18.1457L28.3684 18.0385L19.97 10.6681Z" fill="#F3F3F3" stroke="#F3F3F3" stroke-width="0.32491" stroke-miterlimit="10"/>
</svg>
