<svg width="21" height="21" viewBox="0 0 21 21" fill="none" xmlns="http://www.w3.org/2000/svg">
<path d="M7.68581 12.6771C10.4423 12.6771 12.6769 10.4425 12.6769 7.68596C12.6769 4.92943 10.4423 2.69482 7.68581 2.69482C4.92928 2.69482 2.69467 4.92943 2.69467 7.68596C2.69467 10.4425 4.92928 12.6771 7.68581 12.6771Z" stroke="#F3F3F3" stroke-width="1.13719" stroke-miterlimit="10"/>
<path d="M4.30982 13.8304C2.13607 12.6403 0.666656 10.3329 0.666656 7.68555" stroke="#F3F3F3" stroke-width="1.13719" stroke-miterlimit="10"/>
<path d="M2.29395 3.19243C3.5812 1.65016 5.51208 0.666504 7.68583 0.666504C11.5597 0.666504 14.705 3.81177 14.705 7.68567C14.705 11.5596 11.5597 14.7048 7.68583 14.7048C6.4593 14.7048 5.31777 14.3891 4.32197 13.8426" stroke="#F3F3F3" stroke-width="1.13719" stroke-miterlimit="10"/>
<path d="M13.4542 11.6689L15.2636 13.4784" stroke="#F3F3F3" stroke-width="1.13719" stroke-miterlimit="10"/>
<path d="M11.8148 13.2964L13.6242 15.1058" stroke="#F3F3F3" stroke-width="1.13719" stroke-miterlimit="10"/>
<path d="M13.0722 15.2609L15.4938 12.8394L19.9418 17.2875C20.251 17.5966 20.251 18.0947 19.9418 18.4038L18.628 19.7176C18.3189 20.0267 17.8208 20.0267 17.5117 19.7176L13.0636 15.2695L13.0722 15.2609Z" stroke="#F3F3F3" stroke-width="1.13719" stroke-miterlimit="10"/>
</svg>
