<svg width="41" height="41" viewBox="0 0 41 41" fill="none" xmlns="http://www.w3.org/2000/svg">
<g clip-path="url(#clip0_14000_31671)">
<path fill-rule="evenodd" clip-rule="evenodd" d="M26.3633 6.75145C27.7699 5.05343 28.7144 2.68725 28.4565 0.334473C26.4336 0.416527 23.9854 1.68251 22.5369 3.38053C21.2357 4.8843 20.097 7.29066 20.4051 9.59655C22.6591 9.77238 24.9633 8.45114 26.3666 6.75145M31.4238 21.6853C31.4808 27.7674 36.759 29.7919 36.816 29.8187C36.7741 29.9611 35.9753 32.7024 34.0362 35.5341C32.3616 37.9823 30.6234 40.4222 27.8838 40.4724C25.1927 40.521 24.3286 38.8765 21.2508 38.8765C18.1763 38.8765 17.215 40.4222 14.6663 40.521C12.0239 40.6214 10.011 37.8734 8.3197 35.4353C4.87007 30.445 2.23261 21.3353 5.77434 15.1863C7.53097 12.1319 10.6758 10.1977 14.0886 10.1492C16.6842 10.0989 19.1341 11.8957 20.7199 11.8957C22.3058 11.8957 25.2848 9.73554 28.4146 10.052C29.7258 10.1073 33.4032 10.5812 35.766 14.0392C35.5751 14.1564 31.3769 16.6013 31.4222 21.6853" fill="#1E1850"/>
</g>
<defs>
<clipPath id="clip0_14000_31671">
<rect width="40.1898" height="40.1898" fill="white" transform="translate(0.74231 0.334473)"/>
</clipPath>
</defs>
</svg>
