<svg width="16" height="16" viewBox="0 0 16 16" fill="none" xmlns="http://www.w3.org/2000/svg">
<path d="M14.8687 4.8789L8.34572 11.8472C8.25399 11.945 8.12964 12 8 12C7.87036 12 7.74601 11.945 7.65428 11.8472L1.1313 4.8789C1.04489 4.77983 0.99784 4.64879 1.00008 4.5134C1.00231 4.37801 1.05366 4.24883 1.14329 4.15307C1.23292 4.05732 1.35385 4.00247 1.48059 4.00008C1.60734 3.99769 1.73 4.04795 1.82274 4.14027L8 10.7383L14.1773 4.14027C14.27 4.04795 14.3927 3.99769 14.5194 4.00008C14.6461 4.00247 14.7671 4.05732 14.8567 4.15307C14.9463 4.24883 14.9977 4.37801 14.9999 4.5134C15.0022 4.64879 14.9551 4.77983 14.8687 4.8789Z" fill="#1E1850"/>
</svg>
