<svg width="28" height="28" viewBox="0 0 28 28" fill="none" xmlns="http://www.w3.org/2000/svg">
<path fill-rule="evenodd" clip-rule="evenodd" d="M22.7768 13.5366C22.8378 13.5976 22.8862 13.67 22.9193 13.7496C22.9523 13.8293 22.9693 13.9147 22.9693 14.0009C22.9693 14.0872 22.9523 14.1726 22.9193 14.2522C22.8862 14.3319 22.8378 14.4043 22.7768 14.4652L13.8015 23.434C13.2876 23.9477 12.6887 24.357 12.038 24.6482L12.0167 23.1738C12.3253 22.9858 12.613 22.7606 12.8729 22.501L21.8482 13.5323C21.9095 13.4715 21.9821 13.4235 22.0619 13.3908C22.1417 13.3582 22.2272 13.3416 22.3134 13.342C22.3997 13.3424 22.485 13.3598 22.5645 13.3932C22.644 13.4266 22.7162 13.4753 22.7768 13.5366ZM11.0231 23.6272C10.5747 23.7704 10.1029 23.845 9.62342 23.8447C8.40491 23.844 7.2366 23.3593 6.3755 22.4972C5.5144 21.6351 5.03104 20.4662 5.03175 19.2477C5.03247 18.0292 5.51721 16.8609 6.37933 15.9998L13.6176 8.65942L13.5911 6.81845L5.44964 15.0788C4.34168 16.1863 3.71906 17.6886 3.71875 19.2552C3.71844 20.8218 4.34047 22.3244 5.448 23.4323C6.55553 24.5403 8.05783 25.1629 9.62442 25.1632C10.1065 25.1633 10.5825 25.1045 11.0428 24.9907L11.0231 23.6272ZM16.3073 4.06257L14.5768 5.81835L14.6033 7.65981L17.2381 4.98788C17.7718 4.455 18.4954 4.15598 19.2496 4.15659C20.0038 4.15721 20.7269 4.45741 21.2598 4.99116C21.7927 5.52491 22.0917 6.24848 22.0911 7.0027C22.0905 7.75692 21.7903 8.48 21.2565 9.01288L10.4021 20.0258C10.3003 20.1272 10.1795 20.2075 10.0466 20.2621C9.91378 20.3168 9.77145 20.3447 9.62779 20.3444C9.48413 20.344 9.34195 20.3153 9.20935 20.26C9.07676 20.2047 8.95636 20.1239 8.85503 20.022C8.7537 19.9202 8.67341 19.7994 8.61877 19.6665C8.56412 19.5337 8.53617 19.3913 8.53653 19.2477C8.53688 19.104 8.56553 18.9618 8.62084 18.8292C8.67614 18.6966 8.75702 18.5762 8.85886 18.4749L17.9676 9.20975C18.0281 9.14828 18.0758 9.07549 18.1082 8.99556C18.1405 8.91562 18.1568 8.8301 18.1561 8.74387C18.1554 8.65764 18.1377 8.5724 18.104 8.49301C18.0704 8.41362 18.0214 8.34163 17.96 8.28116C17.8985 8.22069 17.8257 8.17292 17.7458 8.14058C17.6658 8.10824 17.5803 8.09196 17.4941 8.09267C17.4078 8.09338 17.3226 8.11107 17.2432 8.14472C17.1638 8.17838 17.0918 8.22734 17.0314 8.28882L7.92261 17.5496C7.69933 17.7733 7.5223 18.0388 7.40163 18.3309C7.28096 18.6231 7.219 18.9361 7.21931 19.2522C7.21961 19.5682 7.28217 19.8811 7.40341 20.173C7.52464 20.4649 7.70218 20.7301 7.92589 20.9533C8.1496 21.1766 8.4151 21.3537 8.70722 21.4743C8.99934 21.595 9.31238 21.657 9.62845 21.6566C9.94451 21.6563 10.2574 21.5938 10.5493 21.4726C10.8412 21.3513 11.1064 21.1738 11.3296 20.9501L22.1884 9.93819C22.5742 9.55203 22.8801 9.09367 23.0888 8.58926C23.2975 8.08486 23.4047 7.5443 23.4045 6.99845C23.4042 6.45259 23.2965 5.91213 23.0873 5.40792C22.8782 4.90371 22.5718 4.44563 22.1857 4.05983C21.7995 3.67403 21.3411 3.36807 20.8367 3.15941C20.3323 2.95076 19.7918 2.8435 19.2459 2.84375C18.7001 2.844 18.1596 2.95177 17.6554 3.16089C17.1512 3.37002 16.6931 3.67641 16.3073 4.06257Z" fill="#1E1850"/>
</svg>
