<svg width="116" height="28" viewBox="0 0 116 28" fill="none" xmlns="http://www.w3.org/2000/svg">
<path d="M5.36233 15.7331H5.47605V15.6194V7.68603C5.47605 6.46115 6.46121 5.47599 7.68609 5.47599H16.3299H16.4436V5.36227V4.66663V4.55291H16.3299H7.68609C5.96557 4.55291 4.55297 5.96551 4.55297 7.68603V15.6194V15.7331H4.66669H5.36233Z" fill="#F3F3F3" stroke="#F3F3F3" stroke-width="0.227437" stroke-miterlimit="10"/>
<path d="M9.21057 18.1845H9.09685V18.2982V23.6513V23.7006V23.7154H9.21057H9.22444L9.28833 23.7836L14.6579 18.7524H21.4806C23.2008 18.7524 24.6137 17.3549 24.6137 15.6192V7.68591C24.6137 5.96575 23.2163 4.55279 21.4806 4.55279H21.3669V4.6665V5.36215V5.47587H21.4806C22.7055 5.47587 23.6906 6.46103 23.6906 7.68591V15.634C23.6906 16.8589 22.7055 17.8441 21.4806 17.8441H14.3317H14.2868L14.254 17.8748L10.0199 21.8398V18.2982V18.1845H9.90622H9.21057Z" fill="#F3F3F3" stroke="#F3F3F3" stroke-width="0.227437" stroke-miterlimit="10"/>
<path d="M16.1476 9.47681V9.36309H16.0338H9.24017H9.12645V9.47681V10.1725V10.2862H9.24017H16.0338H16.1476V10.1725V9.47681Z" fill="#F3F3F3" stroke="#F3F3F3" stroke-width="0.227437" stroke-miterlimit="10"/>
<path d="M19.7146 13.2659V13.1522H19.6009H9.24017H9.12645V13.2659V13.9615V14.0752H9.24017H19.6009H19.7146V13.9615V13.2659Z" fill="#F3F3F3" stroke="#F3F3F3" stroke-width="0.227437" stroke-miterlimit="10"/>
<path d="M42.4453 9.58594C41.8151 9.58594 41.2474 9.69531 40.7422 9.91406C40.2422 10.1276 39.8151 10.4401 39.4609 10.8516C39.112 11.2578 38.8438 11.75 38.6562 12.3281C38.4688 12.9062 38.375 13.5573 38.375 14.2812C38.375 15.2396 38.5234 16.0729 38.8203 16.7812C39.1224 17.4844 39.5703 18.0286 40.1641 18.4141C40.763 18.7995 41.5104 18.9922 42.4062 18.9922C42.9167 18.9922 43.3958 18.9505 43.8438 18.8672C44.2969 18.7786 44.737 18.6693 45.1641 18.5391V19.6953C44.7474 19.8516 44.3099 19.9661 43.8516 20.0391C43.3932 20.1172 42.849 20.1562 42.2188 20.1562C41.0573 20.1562 40.0859 19.9167 39.3047 19.4375C38.5286 18.9531 37.9453 18.2708 37.5547 17.3906C37.1693 16.5104 36.9766 15.4714 36.9766 14.2734C36.9766 13.4089 37.0964 12.6198 37.3359 11.9062C37.5807 11.1875 37.9349 10.5677 38.3984 10.0469C38.8672 9.52604 39.4401 9.125 40.1172 8.84375C40.7995 8.55729 41.5807 8.41406 42.4609 8.41406C43.0391 8.41406 43.5964 8.47135 44.1328 8.58594C44.6693 8.70052 45.1536 8.86458 45.5859 9.07812L45.0547 10.2031C44.6901 10.0365 44.2891 9.89323 43.8516 9.77344C43.4193 9.64844 42.9505 9.58594 42.4453 9.58594ZM54.8281 15.7031C54.8281 16.4062 54.737 17.0339 54.5547 17.5859C54.3724 18.138 54.1094 18.6042 53.7656 18.9844C53.4219 19.3646 53.0052 19.6562 52.5156 19.8594C52.0312 20.0573 51.4818 20.1562 50.8672 20.1562C50.2943 20.1562 49.7682 20.0573 49.2891 19.8594C48.8151 19.6562 48.4036 19.3646 48.0547 18.9844C47.7109 18.6042 47.4427 18.138 47.25 17.5859C47.0625 17.0339 46.9688 16.4062 46.9688 15.7031C46.9688 14.7656 47.1276 13.9688 47.4453 13.3125C47.763 12.651 48.2161 12.1484 48.8047 11.8047C49.3984 11.4557 50.1042 11.2812 50.9219 11.2812C51.7031 11.2812 52.3854 11.4557 52.9688 11.8047C53.5573 12.1536 54.013 12.6589 54.3359 13.3203C54.6641 13.9766 54.8281 14.7708 54.8281 15.7031ZM48.3125 15.7031C48.3125 16.3906 48.4036 16.987 48.5859 17.4922C48.7682 17.9974 49.0495 18.388 49.4297 18.6641C49.8099 18.9401 50.2995 19.0781 50.8984 19.0781C51.4922 19.0781 51.9792 18.9401 52.3594 18.6641C52.7448 18.388 53.0286 17.9974 53.2109 17.4922C53.3932 16.987 53.4844 16.3906 53.4844 15.7031C53.4844 15.0208 53.3932 14.4323 53.2109 13.9375C53.0286 13.4375 52.7474 13.0521 52.3672 12.7812C51.987 12.5104 51.4948 12.375 50.8906 12.375C50 12.375 49.3464 12.6693 48.9297 13.2578C48.5182 13.8464 48.3125 14.6615 48.3125 15.7031ZM61.125 11.2812C62.1406 11.2812 62.9089 11.5312 63.4297 12.0312C63.9505 12.526 64.2109 13.3229 64.2109 14.4219V20H62.9297V14.5078C62.9297 13.7943 62.7656 13.2604 62.4375 12.9062C62.1146 12.5521 61.6172 12.375 60.9453 12.375C59.9974 12.375 59.3307 12.6432 58.9453 13.1797C58.5599 13.7161 58.3672 14.4948 58.3672 15.5156V20H57.0703V11.4375H58.1172L58.3125 12.6719H58.3828C58.5651 12.3698 58.7969 12.1172 59.0781 11.9141C59.3594 11.7057 59.6745 11.5495 60.0234 11.4453C60.3724 11.3359 60.7396 11.2812 61.125 11.2812ZM69.6484 19.0938C69.862 19.0938 70.0807 19.0755 70.3047 19.0391C70.5286 19.0026 70.7109 18.9583 70.8516 18.9062V19.9141C70.7005 19.9818 70.4896 20.0391 70.2188 20.0859C69.9531 20.1328 69.6927 20.1562 69.4375 20.1562C68.9844 20.1562 68.5729 20.0781 68.2031 19.9219C67.8333 19.7604 67.5365 19.4896 67.3125 19.1094C67.0938 18.7292 66.9844 18.2031 66.9844 17.5312V12.4531H65.7656V11.8203L66.9922 11.3125L67.5078 9.45312H68.2891V11.4375H70.7969V12.4531H68.2891V17.4922C68.2891 18.0286 68.4115 18.4297 68.6562 18.6953C68.9062 18.9609 69.237 19.0938 69.6484 19.0938ZM75.7891 11.2969C76.8099 11.2969 77.5677 11.526 78.0625 11.9844C78.5573 12.4427 78.8047 13.1745 78.8047 14.1797V20H77.8594L77.6094 18.7344H77.5469C77.3073 19.0469 77.0573 19.3099 76.7969 19.5234C76.5365 19.7318 76.2344 19.8906 75.8906 20C75.5521 20.1042 75.1354 20.1562 74.6406 20.1562C74.1198 20.1562 73.6562 20.0651 73.25 19.8828C72.849 19.7005 72.5312 19.4245 72.2969 19.0547C72.0677 18.6849 71.9531 18.2161 71.9531 17.6484C71.9531 16.7943 72.2917 16.138 72.9688 15.6797C73.6458 15.2214 74.6771 14.9714 76.0625 14.9297L77.5391 14.8672V14.3438C77.5391 13.6042 77.3802 13.0859 77.0625 12.7891C76.7448 12.4922 76.2969 12.3438 75.7188 12.3438C75.2708 12.3438 74.8438 12.4089 74.4375 12.5391C74.0312 12.6693 73.6458 12.8229 73.2812 13L72.8828 12.0156C73.2682 11.8177 73.7109 11.6484 74.2109 11.5078C74.7109 11.3672 75.237 11.2969 75.7891 11.2969ZM77.5234 15.7812L76.2188 15.8359C75.151 15.8776 74.3984 16.0521 73.9609 16.3594C73.5234 16.6667 73.3047 17.1016 73.3047 17.6641C73.3047 18.1536 73.4531 18.5156 73.75 18.75C74.0469 18.9844 74.4401 19.1016 74.9297 19.1016C75.6901 19.1016 76.3125 18.8906 76.7969 18.4688C77.2812 18.0469 77.5234 17.4141 77.5234 16.5703V15.7812ZM84.9062 20.1562C84.1354 20.1562 83.4557 19.9974 82.8672 19.6797C82.2786 19.362 81.8203 18.8776 81.4922 18.2266C81.1641 17.5755 81 16.7552 81 15.7656C81 14.7292 81.1719 13.8828 81.5156 13.2266C81.8646 12.5651 82.3438 12.0755 82.9531 11.7578C83.5625 11.4401 84.2552 11.2812 85.0312 11.2812C85.4583 11.2812 85.8698 11.3255 86.2656 11.4141C86.6667 11.4974 86.9948 11.6042 87.25 11.7344L86.8594 12.8203C86.599 12.7161 86.2969 12.6224 85.9531 12.5391C85.6146 12.4557 85.2969 12.4141 85 12.4141C84.4062 12.4141 83.9115 12.5417 83.5156 12.7969C83.125 13.0521 82.8307 13.4271 82.6328 13.9219C82.4401 14.4167 82.3438 15.026 82.3438 15.75C82.3438 16.4427 82.4375 17.0339 82.625 17.5234C82.8177 18.013 83.1016 18.388 83.4766 18.6484C83.8568 18.9036 84.3307 19.0312 84.8984 19.0312C85.3516 19.0312 85.7604 18.9844 86.125 18.8906C86.4896 18.7917 86.8203 18.6771 87.1172 18.5469V19.7031C86.8307 19.849 86.5104 19.9609 86.1562 20.0391C85.8073 20.1172 85.3906 20.1562 84.9062 20.1562ZM91.9141 19.0938C92.1276 19.0938 92.3464 19.0755 92.5703 19.0391C92.7943 19.0026 92.9766 18.9583 93.1172 18.9062V19.9141C92.9661 19.9818 92.7552 20.0391 92.4844 20.0859C92.2188 20.1328 91.9583 20.1562 91.7031 20.1562C91.25 20.1562 90.8385 20.0781 90.4688 19.9219C90.099 19.7604 89.8021 19.4896 89.5781 19.1094C89.3594 18.7292 89.25 18.2031 89.25 17.5312V12.4531H88.0312V11.8203L89.2578 11.3125L89.7734 9.45312H90.5547V11.4375H93.0625V12.4531H90.5547V17.4922C90.5547 18.0286 90.6771 18.4297 90.9219 18.6953C91.1719 18.9609 91.5026 19.0938 91.9141 19.0938ZM106.078 11.4375V20H105.016L104.828 18.7969H104.758C104.581 19.0938 104.352 19.3438 104.07 19.5469C103.789 19.75 103.471 19.901 103.117 20C102.768 20.1042 102.396 20.1562 102 20.1562C101.323 20.1562 100.755 20.0469 100.297 19.8281C99.8385 19.6094 99.4922 19.2708 99.2578 18.8125C99.0286 18.3542 98.9141 17.7656 98.9141 17.0469V11.4375H100.227V16.9531C100.227 17.6667 100.388 18.2005 100.711 18.5547C101.034 18.9036 101.526 19.0781 102.188 19.0781C102.823 19.0781 103.328 18.9583 103.703 18.7188C104.083 18.4792 104.357 18.1276 104.523 17.6641C104.69 17.1953 104.773 16.6224 104.773 15.9453V11.4375H106.078ZM114.359 17.6562C114.359 18.2031 114.221 18.6641 113.945 19.0391C113.674 19.4089 113.284 19.6875 112.773 19.875C112.268 20.0625 111.664 20.1562 110.961 20.1562C110.362 20.1562 109.844 20.1094 109.406 20.0156C108.969 19.9219 108.586 19.7891 108.258 19.6172V18.4219C108.607 18.5938 109.023 18.75 109.508 18.8906C109.992 19.0312 110.487 19.1016 110.992 19.1016C111.732 19.1016 112.268 18.9818 112.602 18.7422C112.935 18.5026 113.102 18.1771 113.102 17.7656C113.102 17.5312 113.034 17.3255 112.898 17.1484C112.768 16.9661 112.547 16.7917 112.234 16.625C111.922 16.4531 111.49 16.2656 110.938 16.0625C110.391 15.8542 109.917 15.6484 109.516 15.4453C109.12 15.237 108.812 14.9844 108.594 14.6875C108.38 14.3906 108.273 14.0052 108.273 13.5312C108.273 12.8073 108.565 12.2526 109.148 11.8672C109.737 11.4766 110.508 11.2812 111.461 11.2812C111.977 11.2812 112.458 11.3333 112.906 11.4375C113.359 11.5365 113.781 11.6719 114.172 11.8438L113.734 12.8828C113.38 12.7318 113.003 12.6042 112.602 12.5C112.201 12.3958 111.792 12.3438 111.375 12.3438C110.776 12.3438 110.315 12.4427 109.992 12.6406C109.674 12.8385 109.516 13.1094 109.516 13.4531C109.516 13.7188 109.589 13.9375 109.734 14.1094C109.885 14.2812 110.125 14.4427 110.453 14.5938C110.781 14.7448 111.214 14.9219 111.75 15.125C112.286 15.3229 112.75 15.5286 113.141 15.7422C113.531 15.9505 113.831 16.2057 114.039 16.5078C114.253 16.8047 114.359 17.1875 114.359 17.6562Z" fill="white"/>
</svg>
