<svg width="28" height="28" viewBox="0 0 28 28" fill="none" xmlns="http://www.w3.org/2000/svg">
<path d="M8.43237 20.4701V20.6593H8.62158H21.9618H21.9736C23.4712 20.6593 24.6892 19.4413 24.6892 17.9437V7.80278C24.6892 7.24786 24.2367 6.81079 23.6972 6.81079H14.5952H14.406V7V7.56667V7.75588H14.5952H23.6972C23.7226 7.75588 23.7441 7.77741 23.7441 7.80278V17.9437C23.7441 18.9253 22.9434 19.726 21.9618 19.726H8.62158H8.43237V19.9152V20.4701Z" fill="#1E1850" stroke="#1E1850" stroke-width="0.378427" stroke-miterlimit="10"/>
<path d="M5.22155 18.6642H5.41076V18.475V10.2937C5.41076 8.88713 6.55382 7.74407 7.96043 7.74407H11.6438H11.833V7.55486V7V6.81079H11.6438H7.96043C6.03788 6.81079 4.47747 8.37119 4.47747 10.2937V18.475V18.6642H4.66669H5.22155Z" fill="#1E1850" stroke="#1E1850" stroke-width="0.378427" stroke-miterlimit="10"/>
<path d="M14.1978 16.22L14.1147 16.3031H14.5715C14.8285 16.3031 15.0761 16.2164 15.2787 16.0283L15.2788 16.0282L24.251 7.69355L24.3885 7.56578L24.2618 7.42724L23.8841 7.01405L23.7555 6.87338L23.6157 7.00301L14.6317 15.3377L14.6316 15.3376L14.6266 15.3426C14.5943 15.375 14.537 15.375 14.5046 15.3426L14.5047 15.3425L14.4996 15.3378L7.38086 8.72668L7.24113 8.59692L7.11246 8.73765L6.73468 9.15085L6.60778 9.28965L6.74581 9.41739L13.8761 16.0165C13.8762 16.0165 13.8762 16.0165 13.8762 16.0166L13.8763 16.0167L14.1978 16.22Z" fill="#1E1850" stroke="#1E1850" stroke-width="0.378427" stroke-miterlimit="10"/>
<path d="M12.1452 13.4688L12.0233 13.3241L11.8786 13.4459L6.07037 18.3334L5.9256 18.4552L6.04742 18.6L6.40467 19.0245L6.5265 19.1693L6.67128 19.0475L12.4795 14.16L12.6242 14.0382L12.5024 13.8934L12.1452 13.4688Z" fill="#1E1850" stroke="#1E1850" stroke-width="0.378427" stroke-miterlimit="10"/>
<path d="M17.3667 13.3847L17.2245 13.2599L17.0997 13.4021L16.7337 13.8192L16.6089 13.9614L16.7511 14.0862L22.3501 18.9998L22.4923 19.1246L22.6171 18.9824L22.9831 18.5653L23.1079 18.4231L22.9657 18.2983L17.3667 13.3847Z" fill="#1E1850" stroke="#1E1850" stroke-width="0.378427" stroke-miterlimit="10"/>
</svg>
