<svg width="43" height="43" viewBox="0 0 43 43" fill="none" xmlns="http://www.w3.org/2000/svg">
<path d="M21.8749 27.9079H22.0454V27.8873C28.8114 27.8233 34.7344 23.9539 36.4466 18.3992L36.4967 18.2367L36.3343 18.1862L35.4449 17.9095L35.2816 17.8587L35.2313 18.0221C33.6772 23.073 28.1833 26.6182 21.8749 26.6182C18.8214 26.6182 15.9284 25.8158 13.5071 24.2732C11.1827 22.7887 9.45072 20.7026 8.63489 18.3911L8.57803 18.23L8.41704 18.2872L7.52761 18.6034L7.36795 18.6602L7.42377 18.8202C8.32733 21.4104 10.2518 23.7324 12.8102 25.3514C15.4483 27.0301 18.5835 27.9079 21.8749 27.9079Z" fill="#1E1850" stroke="#1E1850" stroke-width="0.340926" stroke-miterlimit="10"/>
<path d="M32.3204 14.7838L32.4531 14.8943L32.5618 14.7602L33.1548 14.0289L33.2612 13.8976L33.131 13.7901C30.3863 11.5227 27.5336 10.0837 24.6127 9.56348C22.2724 9.14345 19.9121 9.30368 17.5936 10.0431C13.6854 11.2732 11.2565 13.7045 11.1229 13.8383L11.1207 13.8405L10.9983 13.9628L11.1225 14.0833L11.7945 14.7356L11.9616 14.8977L12.056 14.7089C12.0588 14.7059 12.0622 14.7024 12.0662 14.6983C12.0836 14.6803 12.1101 14.6538 12.1456 14.6196C12.2163 14.5513 12.3214 14.4536 12.459 14.3334C12.7341 14.0929 13.1383 13.7632 13.6567 13.3988C14.6939 12.6698 16.1851 11.8047 18.0119 11.2381L18.0125 11.2379C20.1211 10.5741 22.2869 10.4377 24.4136 10.8279L24.4137 10.8279C27.0869 11.3157 29.7487 12.644 32.3204 14.7838Z" fill="#1E1850" stroke="#1E1850" stroke-width="0.340926" stroke-miterlimit="10"/>
<path d="M6.9136 28.1945L6.799 28.3207L6.9252 28.4353L7.61295 29.0598L7.73915 29.1744L7.85374 29.0482L12.2251 24.234L12.3397 24.1078L12.2135 23.9932L11.5258 23.3687L11.3996 23.2541L11.285 23.3803L6.9136 28.1945Z" fill="#1E1850" stroke="#1E1850" stroke-width="0.340926" stroke-miterlimit="10"/>
<path d="M12.9905 32.6068L12.9162 32.7602L13.0696 32.8345L13.9055 33.2397L14.0589 33.3141L14.1333 33.1607L17.2454 26.74L17.3198 26.5866L17.1664 26.5122L16.3305 26.107L16.1771 26.0327L16.1027 26.1861L12.9905 32.6068Z" fill="#1E1850" stroke="#1E1850" stroke-width="0.340926" stroke-miterlimit="10"/>
<path d="M21.4204 27.0927H21.2499V27.2632V34.2798V34.4503H21.4204H22.3494H22.5198V34.2798V27.2632V27.0927H22.3494H21.4204Z" fill="#1E1850" stroke="#1E1850" stroke-width="0.340926" stroke-miterlimit="10"/>
<path d="M26.877 26.2374L26.7208 26.3056L26.7891 26.4618L29.7102 33.1447L29.7784 33.3009L29.9346 33.2326L30.7858 32.8605L30.942 32.7923L30.8738 32.6361L27.9527 25.9532L27.8844 25.797L27.7282 25.8653L26.877 26.2374Z" fill="#1E1850" stroke="#1E1850" stroke-width="0.340926" stroke-miterlimit="10"/>
<path d="M31.5438 23.9765L31.4183 24.0919L31.5337 24.2174L35.9603 29.0347L36.0756 29.1602L36.2011 29.0449L36.8852 28.4163L37.0107 28.301L36.8953 28.1754L32.4687 23.3582L32.3534 23.2326L32.2279 23.348L31.5438 23.9765Z" fill="#1E1850" stroke="#1E1850" stroke-width="0.340926" stroke-miterlimit="10"/>
</svg>
