<svg width="43" height="42" viewBox="0 0 43 42" fill="none" xmlns="http://www.w3.org/2000/svg">
<rect x="1" y="0.500244" width="41" height="41" rx="20.5" fill="#F3F3F3" fill-opacity="0.5"/>
<rect x="1" y="0.500244" width="41" height="41" rx="20.5" stroke="#F3F3F3"/>
<path d="M31.25 21.0003C31.247 23.3833 30.3727 25.6829 28.7918 27.4659C27.2109 29.249 25.0326 30.3925 22.6672 30.681C22.6145 30.6869 22.5612 30.6817 22.5107 30.6655C22.4602 30.6493 22.4137 30.6227 22.3743 30.5872C22.3349 30.5518 22.3034 30.5084 22.282 30.4599C22.2606 30.4114 22.2497 30.359 22.25 30.306V23.2503H24.5C24.6028 23.2506 24.7046 23.2297 24.799 23.1889C24.8934 23.1481 24.9784 23.0884 25.0487 23.0134C25.1191 22.9384 25.1732 22.8498 25.2078 22.7529C25.2425 22.6561 25.2568 22.5532 25.25 22.4507C25.2335 22.2578 25.1445 22.0784 25.001 21.9484C24.8575 21.8185 24.6701 21.7477 24.4766 21.7503H22.25V19.5003C22.25 19.1025 22.4081 18.721 22.6894 18.4397C22.9707 18.1584 23.3522 18.0003 23.75 18.0003H25.25C25.3528 18.0006 25.4546 17.9797 25.549 17.9389C25.6434 17.8981 25.7284 17.8384 25.7987 17.7634C25.8691 17.6884 25.9232 17.5998 25.9578 17.5029C25.9925 17.4061 26.0068 17.3032 26 17.2007C25.9834 17.0075 25.8942 16.8278 25.7503 16.6978C25.6064 16.5678 25.4186 16.4973 25.2247 16.5003H23.75C22.9544 16.5003 22.1913 16.8164 21.6287 17.379C21.0661 17.9416 20.75 18.7047 20.75 19.5003V21.7503H18.5C18.3972 21.7501 18.2954 21.771 18.201 21.8118C18.1067 21.8526 18.0217 21.9123 17.9513 21.9873C17.881 22.0623 17.8268 22.1509 17.7922 22.2477C17.7576 22.3445 17.7432 22.4474 17.75 22.55C17.7666 22.7432 17.8558 22.9229 17.9997 23.0529C18.1436 23.1829 18.3315 23.2534 18.5253 23.2503H20.75V30.3078C20.7503 30.3608 20.7395 30.4131 20.7181 30.4616C20.6967 30.51 20.6653 30.5533 20.626 30.5887C20.5867 30.6241 20.5403 30.6508 20.49 30.6671C20.4396 30.6833 20.3864 30.6887 20.3338 30.6828C17.905 30.3871 15.6759 29.1903 14.0875 27.3293C12.4991 25.4683 11.6672 23.0788 11.7566 20.6338C11.9441 15.5713 16.0447 11.4557 21.111 11.2588C22.4226 11.208 23.731 11.4222 24.958 11.8887C26.1849 12.3553 27.3051 13.0644 28.2517 13.9739C29.1982 14.8833 29.9516 15.9743 30.4668 17.1816C30.982 18.3889 31.2484 19.6877 31.25 21.0003Z" fill="#F3F3F3"/>
</svg>
