<svg width="42" height="41" viewBox="0 0 42 41" fill="none" xmlns="http://www.w3.org/2000/svg">
<g clip-path="url(#clip0_14000_31673)">
<path d="M41.0881 20.4294C41.0881 9.33134 32.0913 0.334473 20.9932 0.334473C9.89519 0.334473 0.898315 9.33134 0.898315 20.4294C0.898315 30.4593 8.24677 38.7728 17.8534 40.2802V26.2381H12.7512V20.4294H17.8534V16.0022C17.8534 10.9659 20.8535 8.18405 25.4436 8.18405C27.6421 8.18405 29.9417 8.57653 29.9417 8.57653V13.5218H27.4079C24.9116 13.5218 24.1331 15.0708 24.1331 16.66V20.4294H29.7063L28.8153 26.2381H24.1331V40.2802C33.7397 38.7728 41.0881 30.4594 41.0881 20.4294Z" fill="#1877F2"/>
<path d="M28.8154 26.2381L29.7063 20.4294H24.1331V16.6601C24.1331 15.0707 24.9116 13.5218 27.4079 13.5218H29.9418V8.57656C29.9418 8.57656 27.6422 8.18408 25.4435 8.18408C20.8536 8.18408 17.8534 10.966 17.8534 16.0023V20.4294H12.7512V26.2381H17.8534V40.2802C18.8921 40.443 19.9419 40.5246 20.9933 40.5243C22.0446 40.5246 23.0944 40.443 24.1331 40.2802V26.2381H28.8154Z" fill="white"/>
</g>
<defs>
<clipPath id="clip0_14000_31673">
<rect width="40.1898" height="40.1898" fill="white" transform="translate(0.898315 0.334473)"/>
</clipPath>
</defs>
</svg>
