<svg width="35" height="34" viewBox="0 0 35 34" fill="none" xmlns="http://www.w3.org/2000/svg">
<g clip-path="url(#clip0_14000_31669)">
<path d="M34.7797 17.3448C34.7797 16.1944 34.6845 15.0379 34.4815 13.9062H18.197V20.4226H27.5224C27.1354 22.5243 25.892 24.3834 24.0714 25.5648V29.793H29.6349C32.9019 26.8457 34.7797 22.4932 34.7797 17.3448Z" fill="#4285F4"/>
<path d="M18.1969 33.8776C22.8532 33.8776 26.78 32.3791 29.6411 29.7925L24.0776 25.5643C22.5297 26.5965 20.5314 27.181 18.2032 27.181C13.6991 27.181 9.88018 24.2026 8.50992 20.1982H2.7688V24.557C5.69963 30.2713 11.6691 33.8776 18.1969 33.8776Z" fill="#34A853"/>
<path d="M8.5038 20.1982C7.78061 18.0965 7.78061 15.8208 8.5038 13.7191V9.36035H2.76902C0.32032 14.1419 0.32032 19.7753 2.76902 24.5569L8.5038 20.1982Z" fill="#FBBC04"/>
<path d="M18.1969 6.73005C20.6583 6.69275 23.0372 7.60056 24.8198 9.26696L29.7489 4.43565C26.6278 1.56297 22.4853 -0.0163763 18.1969 0.0333669C11.6691 0.0333669 5.69963 3.63975 2.7688 9.36023L8.50358 13.719C9.86749 9.70843 13.6928 6.73005 18.1969 6.73005Z" fill="#EA4335"/>
</g>
<defs>
<clipPath id="clip0_14000_31669">
<rect width="33.8441" height="33.8441" fill="white" transform="translate(0.935547 0.0336914)"/>
</clipPath>
</defs>
</svg>
