<svg width="172" height="74" viewBox="0 0 172 74" fill="none" xmlns="http://www.w3.org/2000/svg">
<g clip-path="url(#clip0_12868_2092)">
<path d="M43.7081 4.21185C43.7081 4.21185 41.2289 2.78067 39.4699 5.44624L39.4525 5.47606C38.7613 6.67865 35.5967 12.6916 34.6901 14.4587C33.1854 17.3926 21.7483 40.3353 21.1833 41.5696C21.2474 40.9037 21.3192 40.22 21.3988 39.5342C21.7094 36.809 22.1191 34.0381 22.5151 31.3586C22.7947 29.4662 23.084 27.5103 23.3344 25.5941C23.6062 23.6024 23.8878 21.545 24.111 19.5632L24.1188 19.4738C24.1693 18.5793 24.0722 17.7683 23.979 16.9851L23.9557 16.8361C23.8179 16.1523 23.2335 14.5303 20.83 14.2222C19.9738 14.0989 18.7099 14.2301 17.5411 15.5679L17.4751 15.6494C17.4518 15.6792 17.4266 15.709 17.4013 15.7408L17.3877 15.7587C17.2188 15.9634 16.4714 17.1481 16.4714 17.1481C16.0112 17.8538 15.5336 18.5813 15.1026 19.3943C13.0486 23.0716 11.0333 26.9656 8.9812 31.2234C9.01421 31.0266 10.6606 22.199 10.8275 21.5947C11.7051 18.4223 9.3695 17.5934 9.3695 17.5934C8.69581 17.2177 8.01436 17.1581 7.39697 17.4165C6.36606 17.8518 6.0496 18.9351 5.83798 19.6606L5.82245 19.7203C5.4128 21.3582 4.97014 22.9583 4.54108 24.3517L4.53137 24.3855C3.61112 27.6216 2.89084 30.4283 2.25792 33.231L2.24239 33.3085C2.05407 34.3839 2.06572 35.0299 2.63456 35.7912C2.06183 39.5064 1.54152 42.8617 1.00179 46.1653L0.988204 46.2468L0.978497 46.388C0.972672 46.5072 0.875599 47.1373 0.858126 47.3262L0.0407703 52.8402C-0.0291224 53.3153 -0.00970776 53.8042 0.128136 54.2634C0.26598 54.7226 0.516429 55.1838 0.999853 55.468C1.48328 55.7522 2.15696 56.2174 3.25777 56.0882C5.57782 55.8159 6.22821 52.9853 6.22821 52.9853C6.56408 52.0173 6.89607 51.0313 7.21836 50.0792L7.22806 50.0514C7.86681 48.1551 8.52884 46.1951 9.23748 44.3247C11.4682 38.3674 14.2193 32.8295 16.615 28.198L16.6267 28.1762C16.6403 28.1503 16.6539 28.1225 16.6675 28.0947C15.9549 32.3723 15.4094 36.64 15.0405 40.8143C14.6852 44.4081 14.3824 47.8052 14.2232 51.3017L14.1086 53.9792C14.0911 54.3787 14.1436 54.7822 14.293 55.1519C14.6561 56.0484 15.39 56.5175 16.0578 56.8336C17.6673 57.6446 19.7427 57.1019 20.7834 55.5952L20.7989 55.5733C21.3231 54.7842 22.3229 52.6891 22.4064 52.4983C22.5656 52.1624 24.9226 47.1671 27.8969 40.8819C28.0386 40.5917 30.9527 34.6105 34.1795 28.1503C33.6203 31.0346 33.1369 33.7359 32.7525 35.9284C31.0731 44.8971 29.1705 55.0645 27.8988 65.1841C27.7551 66.3788 27.6775 67.5973 27.5804 68.772C27.4989 69.7599 27.33 71.5251 28.4599 72.7634C28.9297 73.4214 30.6596 75.1189 33.0301 72.8708C33.8358 72.1154 33.9834 70.9625 33.397 70.0561C33.2165 69.6526 33.2456 69.0881 33.3524 68.3089C33.7776 65.035 34.2183 61.6479 34.8415 58.2926C35.9306 51.9815 36.8761 46.6543 37.9401 41.1721C39.2525 34.537 40.4543 28.7367 41.6133 23.4394C42.5627 19.0584 44.842 9.86302 44.8886 9.65829C45.0866 8.77771 45.3099 7.78185 45.1934 6.67865C45.1409 5.5993 44.5954 4.70481 43.7081 4.21185Z" fill="#CBDB2A"/>
<path d="M108.922 20.1496C109.864 20.1496 110.776 19.6765 111.391 18.8278C111.549 18.6111 111.71 18.3706 111.871 18.1122C112.508 17.0905 112.978 15.9773 113.267 14.8006C113.566 13.5841 113.576 12.4053 113.296 11.2922C113.201 10.9105 113.049 10.5527 112.846 10.2268C111.908 8.72799 110.1 8.3046 108.642 9.24481C108.122 9.58074 107.615 10.024 107.138 10.5627C106.157 11.6659 105.495 12.8864 105.167 14.1903C104.825 15.546 104.956 16.846 105.55 18.0505C106.006 18.9748 106.854 19.6368 108.073 20.0184C108.355 20.1059 108.64 20.1496 108.922 20.1496Z" fill="#EF4626"/>
<path d="M97.0965 17.2955C97.145 17.2955 97.1004 17.2855 97.0848 17.2796C97.0693 17.2736 97.0343 17.2657 97.0052 17.2597C95.8539 17.0251 94.6832 16.9874 93.4931 17.0033C87.9211 17.1146 82.4404 19.1381 77.6857 22.1913C76.4238 23.0123 75.2104 23.8988 74.0435 24.8469C73.1582 25.5665 72.0031 24.3798 72.7234 23.4873C72.7428 23.4635 72.7622 23.4396 72.7816 23.4138C78.3633 16.4527 86.2398 11.1335 95.0968 9.7957C95.9432 9.67643 96.8072 9.58301 97.675 9.58301C99.8514 9.63071 101.537 11.6682 101.28 13.8746C101.047 16.0015 99.1738 17.53 97.0984 17.2915L97.0965 17.2955Z" fill="#EF4626"/>
<path d="M171.67 6.55559C171.586 5.23771 171.218 3.93574 170.569 2.68942C169.897 1.32979 168.647 0.401514 167.045 0.0735353C165.349 -0.252456 163.58 0.540657 162.648 2.03743C162.252 2.61189 162.135 3.20226 162.052 3.6336C162.052 3.6336 161.943 6.27134 164.304 6.56951C165.063 6.66691 165.669 6.66094 166.216 6.23159C166.224 6.30315 166.906 10.2468 166.238 17.1622C164.529 34.8473 159.986 47.2727 152.939 57.3347C152.052 58.6009 147.868 64.4329 146.559 59.394C146.033 57.3705 145.876 55.5497 145.817 53.4566C145.751 49.7753 145.957 46.3126 146.447 42.8698L146.45 42.842C146.767 40.3454 148.71 27.2461 148.84 26.2463C148.974 25.4889 149.279 22.9327 147.541 21.7738C147.541 21.7738 146.757 21.1278 145.332 21.0801H145.295C144.117 21.1437 142.612 21.9189 140.387 27.1527L137.84 33.5731C134.703 42.3232 132.936 48.69 131.082 55.4801C130.934 56.0208 129.94 59.551 129.938 60.0182C129.938 60.0182 129.701 61.4473 130.93 62.2643C131.981 62.962 133.126 62.7911 133.613 62.5684C134.4 62.2106 135.172 61.5726 135.786 58.7042C135.786 58.7042 138.345 47.6583 140.379 41.9714C140.337 42.3093 139.531 49.2664 139.531 52.6237C139.531 54.9673 139.62 57.7541 140.282 60.6324C140.636 62.5068 141.241 64.0334 142.133 65.2976C143.268 66.9276 144.876 67.7883 146.78 67.7883C147.128 67.7883 147.489 67.7604 147.85 67.7028C150.036 67.4086 152.127 66.4227 154.065 64.7709C155.717 63.3496 157.259 61.6084 158.643 59.5967C166.346 48.8351 170.653 35.1792 171.806 17.848C171.938 15.8901 172.004 13.8844 172.004 11.8848C172.004 10.2747 171.895 8.52744 171.674 6.5536L171.67 6.55559Z" fill="#CBDB2A"/>
<path d="M131.505 34.9985C131.076 33.6926 130.348 32.3747 129.117 31.4583C128.942 31.3112 127.979 30.4446 127.667 30.2836C128.601 29.3275 128.837 28.3713 128.37 27.4113C128.055 26.6162 127.527 26.0059 126.847 25.499C126.079 24.9246 125.143 24.9325 124.597 25.2605C122.881 26.0596 121.324 26.974 119.92 28.0116C118.522 29.0492 117.196 30.208 115.95 31.4802C113.302 34.0325 111.12 36.7477 109.403 39.618C108.873 40.6159 108.326 41.9218 107.945 42.9177C107.675 43.2238 101.001 50.34 100.218 50.817C100.927 48.718 101.504 47.0979 102.323 44.5934C104.35 39.0098 106.452 33.8257 108.633 29.0392C109.413 27.127 109.101 25.6879 107.699 24.7318C106.918 24.4157 106.14 24.3342 105.359 24.4932C104.579 24.6542 104.033 25.1333 103.725 25.9284C102.168 28.9597 100.807 31.991 99.6359 35.0224C98.7797 37.2447 97.9002 39.5127 97.0013 41.8225C94.6425 44.0825 83.481 48.871 82.7995 49.1175C69.2559 53.9935 73.5601 44.9989 74.9405 42.54C75.5909 41.4388 76.2704 40.3038 76.981 39.133C77.7634 37.8589 78.4642 36.702 79.0855 35.6644C79.7068 34.6268 80.5649 33.5534 81.658 32.4343C86.6611 28.0493 89.6024 28.6039 89.6024 28.6039C88.8219 30.0391 89.0569 31.2377 90.3052 32.1938C91.8623 32.9929 93.2621 32.5913 94.5124 30.9952C95.6015 29.721 96.1471 28.3236 96.1471 26.809C96.1471 25.2943 95.4443 24.1374 94.0425 23.3364C92.7961 22.7003 91.5089 22.4598 90.1868 22.6188C88.8608 22.7798 87.5755 23.0203 86.3311 23.3364C83.2131 24.2965 80.5241 25.9324 78.2643 28.2441L78.1769 28.3336C76.814 29.7329 75.1094 30.7447 73.2359 31.2118C72.4768 31.4007 71.706 31.5716 70.9236 31.7207C67.5222 32.1978 64.5828 32.0447 62.1016 31.2595C62.0026 31.1741 60.9095 30.2995 60.8804 30.2855C61.8143 29.3294 62.0511 28.3733 61.5832 27.4132C61.1309 26.4273 59.766 24.2487 57.809 25.2605C56.0928 26.0596 54.5357 26.974 53.132 28.0116C51.7342 29.0492 50.4082 30.208 49.1617 31.4802C46.5136 34.0325 44.5372 36.2627 42.6151 39.618C42.1725 40.4529 38.3808 46.112 40.9455 51.6976C41.8871 54.0233 43.6092 55.6632 46.1214 56.6093C47.4261 57.1739 48.6939 57.4641 49.9228 57.4839C51.4954 57.5158 53.0039 57.1043 54.4522 56.2515C57.0247 54.7369 59.0884 52.8624 60.6474 50.6262C61.8939 48.871 63.0257 46.8773 64.0392 44.6451C64.0702 44.5775 64.1149 44.4662 64.1654 44.333C65.0798 42.2041 65.4603 40.0752 65.3108 37.9444H65.3128C67.2154 38.1054 69.1161 38.0696 71.0187 37.839C69.8597 39.8327 68.8462 41.9775 67.9823 44.2753C66.8135 47.3882 66.7747 50.2982 67.8639 53.0095C68.489 54.4467 69.4403 55.4505 70.6673 56.1223C73.9426 57.9153 77.7207 57.0784 79.2001 56.6014C80.6795 56.1243 82.122 55.5677 83.5256 54.9277C85.5525 54.1326 87.4998 53.2938 89.3675 52.4152C90.9634 51.6678 92.6233 50.8846 94.3357 50.0776C94.26 50.4771 94.192 50.8806 94.1396 51.2981C93.9843 52.8942 94.3726 54.2916 95.3084 55.4882C96.2442 56.6849 97.7469 57.2255 99.0496 57.2812C100.51 57.313 101.517 57.0128 102.554 56.3251C103.678 55.5797 104.658 54.6514 105.596 53.6953C106.324 53.0473 107.035 52.3814 107.734 51.7036C108.675 54.0292 110.397 55.6691 112.91 56.6153C114.214 57.1798 115.482 57.47 116.711 57.4899C118.284 57.5217 119.792 57.1102 121.24 56.2575C123.813 54.7428 125.877 52.8684 127.436 50.6322C128.682 48.877 129.814 46.8833 130.827 44.651C130.983 44.3111 131.464 42.9455 131.555 42.6136C131.678 42.1981 131.886 41.1725 131.886 41.1725C132.361 38.5725 132.068 36.537 131.507 35.0045L131.505 34.9985ZM58.6264 41.7728C58.2381 42.7289 57.811 43.685 57.3431 44.6431C56.5218 46.2174 55.5666 47.5134 54.4775 48.5351C50.3965 52.1548 47.7289 50.5129 47.7289 50.5129C46.3622 49.8609 46.0476 48.1196 46.2476 46.599C46.3777 45.6071 46.8223 43.9195 48.0241 42.2518C49.4277 40.0196 54.1863 34.9071 55.487 34.1318L58.9778 36.2667C59.2865 36.5887 59.4457 37.3063 59.4457 38.4214C59.2884 39.6975 59.0147 40.8167 58.6264 41.7728ZM125.413 41.7728C125.024 42.7289 124.597 43.685 124.129 44.6431C123.308 46.2174 122.353 47.5134 121.264 48.5351C117.183 52.1548 114.515 50.5129 114.515 50.5129C113.148 49.8609 113.038 48.0958 113.236 46.5732C113.366 45.5813 113.653 44.6192 114.059 43.7088C114.309 43.2477 114.56 42.7627 114.808 42.2498C116.212 40.0176 118.006 37.9424 120.186 36.0262C120.499 35.7101 120.85 35.3901 121.237 35.0701C121.241 35.0661 121.244 35.0641 121.248 35.0601C122.485 34.0563 124.25 34.261 125.269 35.4954C126.013 36.3939 126.077 36.9028 126.077 36.9028V36.9067C126.176 37.2844 126.23 37.7873 126.23 38.4234C126.073 39.6995 125.799 40.8186 125.411 41.7747L125.413 41.7728Z" fill="#CBDB2A"/>
</g>
<defs>
<clipPath id="clip0_12868_2092">
<rect width="172" height="74" fill="white"/>
</clipPath>
</defs>
</svg>
