<svg width="43" height="42" viewBox="0 0 43 42" fill="none" xmlns="http://www.w3.org/2000/svg">
<rect x="1" y="0.500244" width="41" height="41" rx="20.5" fill="#F3F3F3" fill-opacity="0.5"/>
<rect x="1" y="0.500244" width="41" height="41" rx="20.5" stroke="#F3F3F3"/>
<path d="M26 11.2502H17C15.6081 11.2517 14.2736 11.8053 13.2893 12.7896C12.3051 13.7738 11.7515 15.1083 11.75 16.5002V25.5002C11.7515 26.8922 12.3051 28.2267 13.2893 29.2109C14.2736 30.1952 15.6081 30.7488 17 30.7502H26C27.3919 30.7488 28.7264 30.1952 29.7107 29.2109C30.6949 28.2267 31.2485 26.8922 31.25 25.5002V16.5002C31.2485 15.1083 30.6949 13.7738 29.7107 12.7896C28.7264 11.8053 27.3919 11.2517 26 11.2502ZM21.5 25.5002C20.61 25.5002 19.74 25.2363 18.9999 24.7419C18.2599 24.2474 17.6831 23.5446 17.3425 22.7223C17.0019 21.9001 16.9128 20.9953 17.0865 20.1223C17.2601 19.2494 17.6887 18.4476 18.318 17.8183C18.9474 17.1889 19.7492 16.7603 20.6221 16.5867C21.495 16.4131 22.3998 16.5022 23.2221 16.8428C24.0443 17.1834 24.7471 17.7602 25.2416 18.5002C25.7361 19.2402 26 20.1102 26 21.0002C25.9988 22.1933 25.5243 23.3372 24.6806 24.1809C23.837 25.0245 22.6931 25.499 21.5 25.5002ZM27.125 16.5002C26.9025 16.5002 26.685 16.4343 26.5 16.3106C26.315 16.187 26.1708 16.0113 26.0856 15.8058C26.0005 15.6002 25.9782 15.374 26.0216 15.1558C26.065 14.9375 26.1722 14.7371 26.3295 14.5797C26.4868 14.4224 26.6873 14.3153 26.9055 14.2719C27.1238 14.2285 27.35 14.2507 27.5555 14.3359C27.7611 14.421 27.9368 14.5652 28.0604 14.7502C28.184 14.9352 28.25 15.1527 28.25 15.3752C28.25 15.6736 28.1315 15.9598 27.9205 16.1707C27.7095 16.3817 27.4234 16.5002 27.125 16.5002ZM24.5 21.0002C24.5 21.5936 24.3241 22.1736 23.9944 22.667C23.6648 23.1603 23.1962 23.5448 22.6481 23.7719C22.0999 23.9989 21.4967 24.0584 20.9147 23.9426C20.3328 23.8268 19.7982 23.5411 19.3787 23.1216C18.9591 22.702 18.6734 22.1675 18.5576 21.5855C18.4419 21.0036 18.5013 20.4004 18.7284 19.8522C18.9554 19.304 19.3399 18.8355 19.8333 18.5058C20.3266 18.1762 20.9067 18.0002 21.5 18.0002C22.2956 18.0002 23.0587 18.3163 23.6213 18.8789C24.1839 19.4415 24.5 20.2046 24.5 21.0002Z" fill="#F3F3F3"/>
</svg>
