<svg width="43" height="42" viewBox="0 0 43 42" fill="none" xmlns="http://www.w3.org/2000/svg">
<rect x="1" y="0.500244" width="41" height="41" rx="20.5" fill="#F3F3F3" fill-opacity="0.5"/>
<rect x="1" y="0.500244" width="41" height="41" rx="20.5" stroke="#F3F3F3"/>
<path d="M29.75 11.2502H13.25C12.8522 11.2502 12.4706 11.4083 12.1893 11.6896C11.908 11.9709 11.75 12.3524 11.75 12.7502V29.2502C11.75 29.6481 11.908 30.0296 12.1893 30.3109C12.4706 30.5922 12.8522 30.7502 13.25 30.7502H29.75C30.1478 30.7502 30.5294 30.5922 30.8107 30.3109C31.092 30.0296 31.25 29.6481 31.25 29.2502V12.7502C31.25 12.3524 31.092 11.9709 30.8107 11.6896C30.5294 11.4083 30.1478 11.2502 29.75 11.2502ZM18.5 25.5002C18.5 25.6992 18.421 25.8899 18.2803 26.0306C18.1397 26.1712 17.9489 26.2502 17.75 26.2502C17.5511 26.2502 17.3603 26.1712 17.2197 26.0306C17.079 25.8899 17 25.6992 17 25.5002V19.5002C17 19.3013 17.079 19.1106 17.2197 18.9699C17.3603 18.8293 17.5511 18.7502 17.75 18.7502C17.9489 18.7502 18.1397 18.8293 18.2803 18.9699C18.421 19.1106 18.5 19.3013 18.5 19.5002V25.5002ZM17.75 18.0002C17.5275 18.0002 17.31 17.9343 17.125 17.8106C16.94 17.687 16.7958 17.5113 16.7106 17.3058C16.6255 17.1002 16.6032 16.874 16.6466 16.6558C16.69 16.4375 16.7972 16.2371 16.9545 16.0797C17.1118 15.9224 17.3123 15.8153 17.5305 15.7719C17.7488 15.7285 17.975 15.7507 18.1805 15.8359C18.3861 15.921 18.5618 16.0652 18.6854 16.2502C18.809 16.4352 18.875 16.6527 18.875 16.8752C18.875 17.1736 18.7565 17.4598 18.5455 17.6707C18.3345 17.8817 18.0484 18.0002 17.75 18.0002ZM26.75 25.5002C26.75 25.6992 26.671 25.8899 26.5303 26.0306C26.3897 26.1712 26.1989 26.2502 26 26.2502C25.8011 26.2502 25.6103 26.1712 25.4697 26.0306C25.329 25.8899 25.25 25.6992 25.25 25.5002V22.1252C25.25 21.628 25.0525 21.151 24.7008 20.7994C24.3492 20.4478 23.8723 20.2502 23.375 20.2502C22.8777 20.2502 22.4008 20.4478 22.0492 20.7994C21.6975 21.151 21.5 21.628 21.5 22.1252V25.5002C21.5 25.6992 21.421 25.8899 21.2803 26.0306C21.1397 26.1712 20.9489 26.2502 20.75 26.2502C20.5511 26.2502 20.3603 26.1712 20.2197 26.0306C20.079 25.8899 20 25.6992 20 25.5002V19.5002C20.0009 19.3165 20.0693 19.1396 20.192 19.0029C20.3148 18.8662 20.4834 18.7793 20.666 18.7588C20.8485 18.7382 21.0323 18.7853 21.1824 18.8912C21.3325 18.9972 21.4385 19.1545 21.4803 19.3334C21.9877 18.9892 22.5792 18.7897 23.1914 18.7564C23.8036 18.723 24.4133 18.857 24.955 19.1441C25.4968 19.4311 25.9501 19.8602 26.2664 20.3855C26.5826 20.9107 26.7498 21.5122 26.75 22.1252V25.5002Z" fill="#F3F3F3"/>
</svg>
