<svg width="25" height="24" viewBox="0 0 25 24" fill="none" xmlns="http://www.w3.org/2000/svg">
<path d="M6.0031 19.504H6.1031V19.404V9.04179C6.1031 6.7911 7.93417 4.96003 10.1849 4.96003H12.7231H12.8231V4.86003V4.33203V4.23203H12.7231H10.1849C7.53283 4.23203 5.3751 6.38976 5.3751 9.04179V19.404V19.504H5.4751H6.0031Z" fill="#1E1850" stroke="#1E1850" stroke-width="0.2"/>
<path d="M9.68796 19.6679V19.7679H9.78796H17.2664C17.2665 19.7679 17.2667 19.7679 17.2668 19.7679C19.2764 19.7676 20.9107 18.1327 20.9107 16.1236V7.23779V7.13779H20.8107H20.2827H20.1827V7.23779V16.1236C20.1827 17.7315 18.8743 19.0399 17.2664 19.0399H9.78796H9.68796V19.1399V19.6679Z" fill="#1E1850" stroke="#1E1850" stroke-width="0.2"/>
<path d="M13.9239 9.90552V9.80552H13.8239H13.0828H12.9828V9.90552V15.6487V15.7487H13.0828H13.8239H13.9239V15.6487V9.90552Z" fill="#1E1850" stroke="#1E1850" stroke-width="0.2"/>
<path d="M13.4533 9.12254C13.9019 9.12254 14.2656 8.75885 14.2656 8.31022C14.2656 7.86159 13.9019 7.4979 13.4533 7.4979C13.0047 7.4979 12.641 7.86159 12.641 8.31022C12.641 8.75885 13.0047 9.12254 13.4533 9.12254Z" fill="#1E1850" stroke="#1E1850" stroke-width="0.2"/>
</svg>
