<svg width="161" height="156" viewBox="0 0 161 156" fill="none" xmlns="http://www.w3.org/2000/svg">
<g clip-path="url(#clip0_14029_37154)">
<path d="M120.188 114H41.8121C31.9748 114 24 106.025 24 96.1879V17.8121C24 7.97478 31.9748 0 41.8121 0H120.188C130.025 0 138 7.97478 138 17.8121V96.1879C138 106.025 130.025 114 120.188 114Z" fill="#CBDB2A"/>
<path d="M106.001 24.9338L105.123 24.6048C105.033 24.5831 104.943 24.5675 104.853 24.552C102.993 24.195 102.053 25.325 101.506 26.2097L101.488 26.2407C100.755 27.4855 99.9978 28.7769 99.3025 30.0745C98.3557 31.8935 97.4027 33.7126 96.4404 35.5441C94.8448 38.5832 93.1964 41.7247 91.5978 44.8475C90.7627 46.4835 89.9184 48.1194 89.074 49.7522L89.043 49.8143C87.3667 53.0644 85.6314 56.4263 83.9706 59.7572C83.3374 61.0392 82.7196 62.3399 82.1205 63.6188C82.1888 62.9297 82.2633 62.2219 82.3502 61.5111C82.6793 58.6893 83.1139 55.821 83.533 53.0458C83.8279 51.087 84.1352 49.06 84.4021 47.0764C84.6908 45.0151 84.9888 42.8825 85.2248 40.8306L85.2341 40.7375C85.2868 39.8093 85.1844 38.9712 85.0851 38.161L85.0602 38.0058C84.9143 37.298 84.2966 35.6186 81.7449 35.2989C80.8385 35.1716 79.4974 35.3051 78.2589 36.6927L78.1875 36.7765C78.1626 36.8075 78.1378 36.8386 78.1098 36.8696L78.0943 36.8883C77.9143 37.0993 77.6721 37.388 77.4828 37.7885C77.3772 37.9499 77.2717 38.1051 77.1662 38.2634L77.1227 38.3286C76.6353 39.0581 76.1293 39.8125 75.6699 40.6537C73.4938 44.4626 71.355 48.495 69.179 52.903C69.2131 52.6981 69.2504 52.4933 69.2845 52.2884C69.7377 49.7957 70.2282 47.3868 70.7497 44.8351C70.8801 44.2018 71.0074 43.5686 71.1377 42.9322C71.6189 40.5606 70.4734 39.3779 69.7501 38.8874L69.5918 38.7912C68.8778 38.4031 68.1546 38.341 67.4996 38.608C66.4069 39.0581 66.0716 40.1819 65.845 40.9331L65.8264 40.9952C65.3918 42.6901 64.9231 44.3477 64.4667 45.7912L64.4574 45.8254C63.4827 49.1779 62.719 52.0835 62.0485 54.986L62.033 55.0667C61.8343 56.1811 61.8468 56.8485 62.449 57.637C61.8436 61.4862 61.2911 64.9599 60.7168 68.3807L60.7013 68.4646L60.692 68.6105C60.6858 68.7346 60.664 68.8836 60.6361 69.0513C60.6113 69.2096 60.5833 69.3865 60.5647 69.5821L59.6365 75.7129L59.649 75.9147C59.6614 76.1289 59.7793 77.2402 60.7168 78.0194C61.1638 78.3919 61.943 78.8048 63.1102 78.662C64.2556 78.5223 65.249 77.83 65.7674 76.7963L65.8016 76.7249C65.9257 76.4456 66.0126 76.1724 66.084 75.9458C66.1275 75.8061 66.1741 75.6602 66.2175 75.5608L66.2641 75.4429C66.6211 74.4402 66.9718 73.4189 67.3133 72.4318L67.3226 72.4038C67.9993 70.4389 68.7009 68.4087 69.4521 66.4747C71.8176 60.3066 74.7324 54.5731 77.2748 49.7739L77.2872 49.7522C77.3027 49.7243 77.3152 49.6963 77.3307 49.6684C76.5764 54.0981 75.9959 58.5155 75.6047 62.8397C75.2291 66.5617 75.0553 70.2898 74.8876 73.9094V73.9528C74.8721 74.6792 74.9249 75.387 74.9777 76.0855C75.0025 76.3959 75.0242 76.7063 75.0429 77.026L75.0522 77.1409C75.1763 78.156 75.791 79.0128 76.685 79.4287C78.3923 80.2669 80.5901 79.7081 81.6952 78.1467L81.7108 78.1218C82.2664 77.3054 82.6731 76.5728 82.9463 75.9023C83.0083 75.7657 83.0766 75.6322 83.148 75.4894C83.2349 75.3156 83.325 75.1356 83.415 74.9369C83.5826 74.5892 86.0815 69.4176 89.2354 62.908C89.3844 62.6069 92.4763 56.4139 95.8971 49.7243C95.3042 52.7106 94.792 55.5106 94.3823 57.7798C92.6035 67.0676 90.5858 77.5972 89.2354 88.0771C89.0833 89.3157 88.9871 90.5729 88.8971 91.7929L88.8505 92.392V92.4448C88.7884 93.792 89.1206 94.9158 89.8346 95.7881C90.3312 96.4679 91.1166 96.9056 91.992 96.9894C92.2279 97.0111 92.4669 97.008 92.7029 96.9801C93.4479 96.8901 94.1525 96.5486 94.671 96.0364C95.5246 95.2541 95.6829 94.059 95.0621 93.1215C94.8727 92.7024 94.9007 92.1188 95.0155 91.3117C95.4687 87.9219 95.9344 84.4141 96.5956 80.9405C97.7504 74.4061 98.753 68.8867 99.8799 63.2122C101.271 56.3394 102.546 50.3327 103.776 44.8475C104.781 40.3091 105.955 35.7304 107.091 31.2882L107.11 31.2075C107.153 30.9995 107.2 30.7884 107.249 30.5773C107.457 29.6647 107.696 28.6341 107.572 27.4917C107.516 26.3742 106.939 25.4491 105.998 24.9369" fill="#1E1850"/>
<path d="M82.546 30.0369C83.648 30.0369 84.7158 29.4968 85.436 28.5252C85.6191 28.2768 85.8085 28.0036 85.9979 27.7056C86.7429 26.5384 87.2923 25.2657 87.6338 23.9185C87.9815 22.5278 87.9939 21.1805 87.6679 19.9078C87.5562 19.4732 87.3792 19.0634 87.1402 18.6909C86.0413 16.9774 83.9273 16.4931 82.22 17.5703C81.6116 17.9552 81.0187 18.4612 80.4568 19.079C79.3082 20.3393 78.5322 21.7362 78.1504 23.2262C77.7499 24.7752 77.902 26.2622 78.5974 27.6404C79.1313 28.6959 80.1246 29.4533 81.5526 29.8879C81.8816 29.9872 82.2169 30.0369 82.546 30.0369Z" fill="#EF4626"/>
<path d="M72.8947 30.2207C72.9351 30.2052 72.8947 30.2114 72.8792 30.2114C72.8637 30.2114 72.8327 30.2176 72.8078 30.2207C71.7772 30.3853 70.7901 30.7174 69.8029 31.0992C65.19 32.9121 61.2321 36.2523 58.19 40.2102C57.386 41.2687 56.641 42.3676 55.9549 43.5007C55.4334 44.3605 54.1141 43.7521 54.4432 42.8022C54.4525 42.7774 54.4618 42.7494 54.4711 42.7246C57.0228 35.3334 61.9865 28.5662 68.9648 24.7387C69.6353 24.3786 70.3275 24.0371 71.0508 23.7701C72.8792 23.1369 74.9001 24.273 75.3533 26.1511C75.8003 27.9546 74.7014 29.7799 72.8979 30.2269" fill="#EF4626"/>
</g>
<path d="M1.97656 154.359C1.66406 154.359 1.39062 154.341 1.15625 154.305C0.916667 154.273 0.713542 154.234 0.546875 154.188V152.172C0.713542 152.208 0.893229 152.242 1.08594 152.273C1.27344 152.31 1.47396 152.328 1.6875 152.328C1.96875 152.328 2.22135 152.273 2.44531 152.164C2.66927 152.06 2.84635 151.859 2.97656 151.562C3.10677 151.266 3.17188 150.839 3.17188 150.281V139.578H5.59375V150.266C5.59375 151.245 5.4401 152.034 5.13281 152.633C4.83073 153.237 4.40625 153.674 3.85938 153.945C3.31771 154.221 2.6901 154.359 1.97656 154.359ZM16.2188 146.617C16.2188 147.346 16.1198 147.992 15.9219 148.555C15.7292 149.117 15.4453 149.594 15.0703 149.984C14.7005 150.37 14.2526 150.661 13.7266 150.859C13.2057 151.057 12.6172 151.156 11.9609 151.156C11.3464 151.156 10.7812 151.057 10.2656 150.859C9.75521 150.661 9.3099 150.37 8.92969 149.984C8.55469 149.594 8.26302 149.117 8.05469 148.555C7.85156 147.992 7.75 147.346 7.75 146.617C7.75 145.648 7.92188 144.828 8.26562 144.156C8.60938 143.484 9.09896 142.974 9.73438 142.625C10.3698 142.276 11.1276 142.102 12.0078 142.102C12.8255 142.102 13.5495 142.276 14.1797 142.625C14.8151 142.974 15.3125 143.484 15.6719 144.156C16.0365 144.828 16.2188 145.648 16.2188 146.617ZM10.1797 146.617C10.1797 147.19 10.2422 147.672 10.3672 148.062C10.4922 148.453 10.6875 148.747 10.9531 148.945C11.2188 149.143 11.5651 149.242 11.9922 149.242C12.4141 149.242 12.7552 149.143 13.0156 148.945C13.2812 148.747 13.474 148.453 13.5938 148.062C13.7188 147.672 13.7812 147.19 13.7812 146.617C13.7812 146.039 13.7188 145.56 13.5938 145.18C13.474 144.794 13.2812 144.505 13.0156 144.312C12.75 144.12 12.4036 144.023 11.9766 144.023C11.3464 144.023 10.888 144.24 10.6016 144.672C10.3203 145.104 10.1797 145.753 10.1797 146.617ZM20.5703 142.266V151H18.1875V142.266H20.5703ZM19.3828 138.844C19.737 138.844 20.0417 138.927 20.2969 139.094C20.5521 139.255 20.6797 139.56 20.6797 140.008C20.6797 140.451 20.5521 140.758 20.2969 140.93C20.0417 141.096 19.737 141.18 19.3828 141.18C19.0234 141.18 18.7161 141.096 18.4609 140.93C18.2109 140.758 18.0859 140.451 18.0859 140.008C18.0859 139.56 18.2109 139.255 18.4609 139.094C18.7161 138.927 19.0234 138.844 19.3828 138.844ZM28.0391 142.102C28.9714 142.102 29.7214 142.357 30.2891 142.867C30.8568 143.372 31.1406 144.185 31.1406 145.305V151H28.7578V145.898C28.7578 145.273 28.6432 144.802 28.4141 144.484C28.1901 144.167 27.8359 144.008 27.3516 144.008C26.6224 144.008 26.125 144.255 25.8594 144.75C25.5938 145.245 25.4609 145.958 25.4609 146.891V151H23.0781V142.266H24.8984L25.2188 143.383H25.3516C25.5391 143.081 25.7708 142.836 26.0469 142.648C26.3281 142.461 26.638 142.323 26.9766 142.234C27.3203 142.146 27.6745 142.102 28.0391 142.102ZM48.3047 145.273C48.3047 146.154 48.1953 146.956 47.9766 147.68C47.7578 148.398 47.4245 149.018 46.9766 149.539C46.5339 150.06 45.9714 150.461 45.2891 150.742C44.6068 151.018 43.7995 151.156 42.8672 151.156C41.9349 151.156 41.1276 151.018 40.4453 150.742C39.763 150.461 39.1979 150.06 38.75 149.539C38.3073 149.018 37.9766 148.396 37.7578 147.672C37.5391 146.948 37.4297 146.143 37.4297 145.258C37.4297 144.076 37.6224 143.047 38.0078 142.172C38.3984 141.292 38.9974 140.609 39.8047 140.125C40.612 139.641 41.638 139.398 42.8828 139.398C44.1224 139.398 45.1406 139.641 45.9375 140.125C46.7396 140.609 47.3333 141.292 47.7188 142.172C48.1094 143.052 48.3047 144.086 48.3047 145.273ZM39.9688 145.273C39.9688 146.07 40.0677 146.758 40.2656 147.336C40.4688 147.909 40.7839 148.352 41.2109 148.664C41.638 148.971 42.1901 149.125 42.8672 149.125C43.5547 149.125 44.112 148.971 44.5391 148.664C44.9661 148.352 45.276 147.909 45.4688 147.336C45.6667 146.758 45.7656 146.07 45.7656 145.273C45.7656 144.076 45.5417 143.133 45.0938 142.445C44.6458 141.758 43.9089 141.414 42.8828 141.414C42.2005 141.414 41.6432 141.57 41.2109 141.883C40.7839 142.19 40.4688 142.633 40.2656 143.211C40.0677 143.784 39.9688 144.471 39.9688 145.273ZM58.5 142.266V151H56.6719L56.3516 149.883H56.2266C56.0391 150.18 55.8047 150.422 55.5234 150.609C55.2422 150.797 54.9323 150.935 54.5938 151.023C54.2552 151.112 53.9036 151.156 53.5391 151.156C52.9141 151.156 52.3698 151.047 51.9062 150.828C51.4427 150.604 51.0807 150.258 50.8203 149.789C50.5651 149.32 50.4375 148.711 50.4375 147.961V142.266H52.8203V147.367C52.8203 147.992 52.9323 148.464 53.1562 148.781C53.3802 149.099 53.737 149.258 54.2266 149.258C54.7109 149.258 55.0911 149.148 55.3672 148.93C55.6432 148.706 55.8359 148.38 55.9453 147.953C56.0599 147.521 56.1172 146.995 56.1172 146.375V142.266H58.5ZM65.875 142.102C65.9948 142.102 66.1328 142.109 66.2891 142.125C66.4505 142.135 66.5807 142.151 66.6797 142.172L66.5 144.406C66.4219 144.38 66.3099 144.362 66.1641 144.352C66.0234 144.336 65.901 144.328 65.7969 144.328C65.4896 144.328 65.1901 144.367 64.8984 144.445C64.612 144.523 64.3542 144.651 64.125 144.828C63.8958 145 63.7135 145.229 63.5781 145.516C63.4479 145.797 63.3828 146.143 63.3828 146.555V151H61V142.266H62.8047L63.1562 143.734H63.2734C63.4453 143.438 63.6589 143.167 63.9141 142.922C64.1745 142.672 64.4688 142.474 64.7969 142.328C65.1302 142.177 65.4896 142.102 65.875 142.102ZM82.7422 151H79.6641L74.6953 142.359H74.625C74.6458 142.719 74.6641 143.081 74.6797 143.445C74.6953 143.81 74.7109 144.174 74.7266 144.539C74.7422 144.898 74.7578 145.26 74.7734 145.625V151H72.6094V139.578H75.6641L80.625 148.133H80.6797C80.6693 147.779 80.6562 147.427 80.6406 147.078C80.625 146.729 80.6094 146.38 80.5938 146.031C80.5833 145.682 80.5729 145.333 80.5625 144.984V139.578H82.7422V151ZM89.0391 142.102C89.8464 142.102 90.5417 142.258 91.125 142.57C91.7083 142.878 92.1589 143.326 92.4766 143.914C92.7943 144.503 92.9531 145.221 92.9531 146.07V147.227H87.3203C87.3464 147.898 87.5469 148.427 87.9219 148.812C88.3021 149.193 88.8281 149.383 89.5 149.383C90.0573 149.383 90.5677 149.326 91.0312 149.211C91.4948 149.096 91.9714 148.924 92.4609 148.695V150.539C92.0286 150.753 91.5755 150.909 91.1016 151.008C90.6328 151.107 90.0625 151.156 89.3906 151.156C88.5156 151.156 87.7396 150.995 87.0625 150.672C86.3906 150.349 85.862 149.857 85.4766 149.195C85.0964 148.534 84.9062 147.701 84.9062 146.695C84.9062 145.674 85.0781 144.826 85.4219 144.148C85.7708 143.466 86.2552 142.956 86.875 142.617C87.4948 142.273 88.2161 142.102 89.0391 142.102ZM89.0547 143.797C88.5911 143.797 88.2057 143.945 87.8984 144.242C87.5964 144.539 87.4219 145.005 87.375 145.641H90.7188C90.7135 145.286 90.6484 144.971 90.5234 144.695C90.4036 144.419 90.2214 144.201 89.9766 144.039C89.737 143.878 89.4297 143.797 89.0547 143.797ZM102.07 151L101.398 147.945C101.362 147.763 101.302 147.495 101.219 147.141C101.135 146.781 101.044 146.398 100.945 145.992C100.852 145.581 100.763 145.201 100.68 144.852C100.602 144.503 100.544 144.247 100.508 144.086H100.438C100.401 144.247 100.344 144.503 100.266 144.852C100.188 145.201 100.099 145.581 100 145.992C99.9062 146.404 99.8177 146.792 99.7344 147.156C99.651 147.516 99.5885 147.789 99.5469 147.977L98.8438 151H96.2812L93.7969 142.266H96.1719L97.1797 146.133C97.2474 146.404 97.3125 146.727 97.375 147.102C97.4375 147.471 97.4922 147.831 97.5391 148.18C97.5911 148.523 97.6302 148.797 97.6562 149H97.7188C97.7292 148.849 97.75 148.648 97.7812 148.398C97.8177 148.148 97.8568 147.891 97.8984 147.625C97.9453 147.354 97.987 147.112 98.0234 146.898C98.0651 146.68 98.0964 146.531 98.1172 146.453L99.1953 142.266H101.82L102.844 146.453C102.88 146.604 102.927 146.844 102.984 147.172C103.047 147.5 103.102 147.839 103.148 148.188C103.195 148.531 103.221 148.802 103.227 149H103.289C103.31 148.823 103.346 148.56 103.398 148.211C103.451 147.862 103.51 147.497 103.578 147.117C103.651 146.732 103.724 146.404 103.797 146.133L104.844 142.266H107.18L104.664 151H102.07ZM114.688 148.406C114.688 149 114.547 149.503 114.266 149.914C113.99 150.32 113.576 150.63 113.023 150.844C112.471 151.052 111.784 151.156 110.961 151.156C110.352 151.156 109.828 151.117 109.391 151.039C108.958 150.961 108.521 150.831 108.078 150.648V148.68C108.552 148.893 109.06 149.07 109.602 149.211C110.148 149.346 110.628 149.414 111.039 149.414C111.503 149.414 111.833 149.346 112.031 149.211C112.234 149.07 112.336 148.888 112.336 148.664C112.336 148.518 112.294 148.388 112.211 148.273C112.133 148.154 111.961 148.021 111.695 147.875C111.43 147.724 111.013 147.529 110.445 147.289C109.898 147.06 109.448 146.828 109.094 146.594C108.745 146.359 108.484 146.083 108.312 145.766C108.146 145.443 108.062 145.034 108.062 144.539C108.062 143.732 108.375 143.125 109 142.719C109.63 142.307 110.471 142.102 111.523 142.102C112.065 142.102 112.581 142.156 113.07 142.266C113.565 142.375 114.073 142.549 114.594 142.789L113.875 144.508C113.443 144.32 113.034 144.167 112.648 144.047C112.268 143.927 111.88 143.867 111.484 143.867C111.135 143.867 110.872 143.914 110.695 144.008C110.518 144.102 110.43 144.245 110.43 144.438C110.43 144.578 110.474 144.703 110.562 144.812C110.656 144.922 110.833 145.044 111.094 145.18C111.359 145.31 111.747 145.479 112.258 145.688C112.753 145.891 113.182 146.104 113.547 146.328C113.911 146.547 114.193 146.82 114.391 147.148C114.589 147.471 114.688 147.891 114.688 148.406ZM118.93 151H116.547V138.844H118.93V151ZM125.039 142.102C125.846 142.102 126.542 142.258 127.125 142.57C127.708 142.878 128.159 143.326 128.477 143.914C128.794 144.503 128.953 145.221 128.953 146.07V147.227H123.32C123.346 147.898 123.547 148.427 123.922 148.812C124.302 149.193 124.828 149.383 125.5 149.383C126.057 149.383 126.568 149.326 127.031 149.211C127.495 149.096 127.971 148.924 128.461 148.695V150.539C128.029 150.753 127.576 150.909 127.102 151.008C126.633 151.107 126.062 151.156 125.391 151.156C124.516 151.156 123.74 150.995 123.062 150.672C122.391 150.349 121.862 149.857 121.477 149.195C121.096 148.534 120.906 147.701 120.906 146.695C120.906 145.674 121.078 144.826 121.422 144.148C121.771 143.466 122.255 142.956 122.875 142.617C123.495 142.273 124.216 142.102 125.039 142.102ZM125.055 143.797C124.591 143.797 124.206 143.945 123.898 144.242C123.596 144.539 123.422 145.005 123.375 145.641H126.719C126.714 145.286 126.648 144.971 126.523 144.695C126.404 144.419 126.221 144.201 125.977 144.039C125.737 143.878 125.43 143.797 125.055 143.797ZM134.57 149.258C134.831 149.258 135.083 149.232 135.328 149.18C135.578 149.128 135.826 149.062 136.07 148.984V150.758C135.815 150.872 135.497 150.966 135.117 151.039C134.742 151.117 134.331 151.156 133.883 151.156C133.362 151.156 132.893 151.073 132.477 150.906C132.065 150.734 131.74 150.44 131.5 150.023C131.266 149.602 131.148 149.016 131.148 148.266V144.055H130.008V143.047L131.32 142.25L132.008 140.406H133.531V142.266H135.977V144.055H133.531V148.266C133.531 148.599 133.625 148.849 133.812 149.016C134.005 149.177 134.258 149.258 134.57 149.258ZM141.523 149.258C141.784 149.258 142.036 149.232 142.281 149.18C142.531 149.128 142.779 149.062 143.023 148.984V150.758C142.768 150.872 142.451 150.966 142.07 151.039C141.695 151.117 141.284 151.156 140.836 151.156C140.315 151.156 139.846 151.073 139.43 150.906C139.018 150.734 138.693 150.44 138.453 150.023C138.219 149.602 138.102 149.016 138.102 148.266V144.055H136.961V143.047L138.273 142.25L138.961 140.406H140.484V142.266H142.93V144.055H140.484V148.266C140.484 148.599 140.578 148.849 140.766 149.016C140.958 149.177 141.211 149.258 141.523 149.258ZM148.398 142.102C149.206 142.102 149.901 142.258 150.484 142.57C151.068 142.878 151.518 143.326 151.836 143.914C152.154 144.503 152.312 145.221 152.312 146.07V147.227H146.68C146.706 147.898 146.906 148.427 147.281 148.812C147.661 149.193 148.188 149.383 148.859 149.383C149.417 149.383 149.927 149.326 150.391 149.211C150.854 149.096 151.331 148.924 151.82 148.695V150.539C151.388 150.753 150.935 150.909 150.461 151.008C149.992 151.107 149.422 151.156 148.75 151.156C147.875 151.156 147.099 150.995 146.422 150.672C145.75 150.349 145.221 149.857 144.836 149.195C144.456 148.534 144.266 147.701 144.266 146.695C144.266 145.674 144.438 144.826 144.781 144.148C145.13 143.466 145.615 142.956 146.234 142.617C146.854 142.273 147.576 142.102 148.398 142.102ZM148.414 143.797C147.951 143.797 147.565 143.945 147.258 144.242C146.956 144.539 146.781 145.005 146.734 145.641H150.078C150.073 145.286 150.008 144.971 149.883 144.695C149.763 144.419 149.581 144.201 149.336 144.039C149.096 143.878 148.789 143.797 148.414 143.797ZM159.125 142.102C159.245 142.102 159.383 142.109 159.539 142.125C159.701 142.135 159.831 142.151 159.93 142.172L159.75 144.406C159.672 144.38 159.56 144.362 159.414 144.352C159.273 144.336 159.151 144.328 159.047 144.328C158.74 144.328 158.44 144.367 158.148 144.445C157.862 144.523 157.604 144.651 157.375 144.828C157.146 145 156.964 145.229 156.828 145.516C156.698 145.797 156.633 146.143 156.633 146.555V151H154.25V142.266H156.055L156.406 143.734H156.523C156.695 143.438 156.909 143.167 157.164 142.922C157.424 142.672 157.719 142.474 158.047 142.328C158.38 142.177 158.74 142.102 159.125 142.102Z" fill="#1E1850"/>
<defs>
<clipPath id="clip0_14029_37154">
<rect width="114" height="114" fill="white" transform="translate(24)"/>
</clipPath>
</defs>
</svg>
