<svg width="494" height="16" viewBox="0 0 494 16" fill="none" xmlns="http://www.w3.org/2000/svg">
<path d="M163.08 8.74805L7.34399 8.74803" stroke="#CCCCCC" stroke-width="1.41017" stroke-linecap="round"/>
<path d="M188.926 8.55587C188.926 9.66135 188.786 10.6687 188.504 11.578C188.223 12.4807 187.804 13.2591 187.248 13.9132C186.699 14.5608 186.015 15.0612 185.198 15.4144C184.38 15.7677 183.432 15.9443 182.352 15.9443C181.24 15.9443 180.269 15.7677 179.438 15.4144C178.614 15.0612 177.927 14.5575 177.378 13.9034C176.835 13.2493 176.426 12.4676 176.151 11.5583C175.883 10.6491 175.749 9.64173 175.749 8.53625C175.749 7.07099 175.991 5.78563 176.475 4.68014C176.959 3.57466 177.692 2.71448 178.673 2.0996C179.661 1.48471 180.897 1.17727 182.382 1.17727C183.801 1.17727 184.995 1.48144 185.963 2.08978C186.938 2.69813 187.674 3.55504 188.171 4.66052C188.674 5.75946 188.926 7.05791 188.926 8.55587ZM177.505 8.55587C177.505 9.77256 177.678 10.8257 178.025 11.7153C178.372 12.6049 178.902 13.2918 179.615 13.7758C180.334 14.2599 181.247 14.5019 182.352 14.5019C183.464 14.5019 184.374 14.2599 185.08 13.7758C185.793 13.2918 186.32 12.6049 186.66 11.7153C187 10.8257 187.17 9.77256 187.17 8.55587C187.17 6.70468 186.781 5.25905 186.002 4.21898C185.23 3.17237 184.024 2.64907 182.382 2.64907C181.27 2.64907 180.354 2.88782 179.634 3.36534C178.915 3.84286 178.378 4.52315 178.025 5.40623C177.678 6.28277 177.505 7.33265 177.505 8.55587ZM196.766 4.79789C196.982 4.79789 197.208 4.81097 197.443 4.83714C197.679 4.85676 197.888 4.8862 198.071 4.92544L197.865 6.43649C197.688 6.3907 197.492 6.35472 197.276 6.32856C197.06 6.30239 196.858 6.28931 196.668 6.28931C196.236 6.28931 195.827 6.37762 195.441 6.55423C195.062 6.7243 194.728 6.97287 194.441 7.29994C194.153 7.62046 193.927 8.00967 193.764 8.46756C193.6 8.91892 193.518 9.4226 193.518 9.97861V15.748H191.88V4.99413H193.234L193.41 6.97615H193.479C193.701 6.57713 193.97 6.21408 194.284 5.88702C194.598 5.55341 194.961 5.28849 195.373 5.09225C195.791 4.89601 196.256 4.79789 196.766 4.79789ZM209.63 15.9443C208.661 15.9443 207.808 15.7448 207.069 15.3458C206.329 14.9467 205.754 14.3384 205.342 13.5207C204.93 12.7031 204.724 11.6728 204.724 10.43C204.724 9.12824 204.939 8.06527 205.371 7.24107C205.809 6.41032 206.411 5.79544 207.177 5.39642C207.942 4.9974 208.812 4.79789 209.787 4.79789C210.323 4.79789 210.84 4.85349 211.337 4.96469C211.841 5.06935 212.253 5.20345 212.573 5.36698L212.083 6.73085C211.755 6.60002 211.376 6.48228 210.944 6.37762C210.519 6.27295 210.12 6.22062 209.747 6.22062C209.002 6.22062 208.38 6.38089 207.883 6.70141C207.392 7.02193 207.023 7.49291 206.774 8.11433C206.532 8.73576 206.411 9.50109 206.411 10.4103C206.411 11.2803 206.529 12.0228 206.764 12.6377C207.006 13.2525 207.363 13.7235 207.834 14.0506C208.311 14.3711 208.907 14.5314 209.62 14.5314C210.189 14.5314 210.702 14.4725 211.16 14.3547C211.618 14.2305 212.033 14.0866 212.406 13.923V15.3752C212.047 15.5583 211.644 15.699 211.199 15.7971C210.761 15.8952 210.238 15.9443 209.63 15.9443ZM224.23 10.3515C224.23 11.2345 224.115 12.0228 223.886 12.7161C223.657 13.4095 223.327 13.995 222.895 14.4725C222.464 14.95 221.94 15.3163 221.325 15.5714C220.717 15.82 220.027 15.9443 219.255 15.9443C218.536 15.9443 217.875 15.82 217.273 15.5714C216.678 15.3163 216.161 14.95 215.723 14.4725C215.291 13.995 214.954 13.4095 214.712 12.7161C214.477 12.0228 214.359 11.2345 214.359 10.3515C214.359 9.17403 214.558 8.17321 214.957 7.349C215.356 6.51825 215.926 5.88702 216.665 5.45529C217.41 5.01702 218.297 4.79789 219.324 4.79789C220.305 4.79789 221.162 5.01702 221.895 5.45529C222.634 5.89356 223.206 6.52807 223.612 7.35881C224.024 8.18302 224.23 9.18057 224.23 10.3515ZM216.047 10.3515C216.047 11.2149 216.161 11.9639 216.39 12.5984C216.619 13.2329 216.972 13.7235 217.45 14.0702C217.927 14.4169 218.542 14.5902 219.294 14.5902C220.04 14.5902 220.652 14.4169 221.129 14.0702C221.613 13.7235 221.97 13.2329 222.199 12.5984C222.428 11.9639 222.542 11.2149 222.542 10.3515C222.542 9.49455 222.428 8.75538 222.199 8.13396C221.97 7.50599 221.617 7.02193 221.139 6.68179C220.661 6.34164 220.043 6.17156 219.285 6.17156C218.166 6.17156 217.345 6.54115 216.822 7.28032C216.305 8.01948 216.047 9.0432 216.047 10.3515ZM232.138 4.79789C233.414 4.79789 234.379 5.11187 235.033 5.73984C235.687 6.36126 236.014 7.36208 236.014 8.7423V15.748H234.405V8.85023C234.405 7.95407 234.199 7.28359 233.787 6.83878C233.381 6.39397 232.756 6.17156 231.913 6.17156C230.722 6.17156 229.885 6.50844 229.401 7.1822C228.917 7.85595 228.675 8.83388 228.675 10.116V15.748H227.046V4.99413H228.361L228.606 6.54442H228.694C228.923 6.16502 229.214 5.84777 229.567 5.59266C229.921 5.331 230.316 5.13477 230.755 5.00394C231.193 4.86657 231.654 4.79789 232.138 4.79789ZM242.843 14.6099C243.111 14.6099 243.386 14.587 243.667 14.5412C243.949 14.4954 244.177 14.4398 244.354 14.3744V15.6401C244.164 15.7252 243.899 15.7971 243.559 15.856C243.226 15.9149 242.899 15.9443 242.578 15.9443C242.009 15.9443 241.492 15.8462 241.028 15.6499C240.563 15.4471 240.191 15.107 239.909 14.6295C239.635 14.152 239.497 13.4913 239.497 12.6475V6.26968H237.967V5.47491L239.507 4.83714L240.155 2.50189H241.136V4.99413H244.285V6.26968H241.136V12.5984C241.136 13.2722 241.29 13.7758 241.597 14.1094C241.911 14.4431 242.326 14.6099 242.843 14.6099ZM248.161 4.99413V15.748H246.532V4.99413H248.161ZM247.366 0.971219C247.635 0.971219 247.864 1.05953 248.053 1.23614C248.249 1.40622 248.348 1.67441 248.348 2.04072C248.348 2.4005 248.249 2.66869 248.053 2.84531C247.864 3.02192 247.635 3.11023 247.366 3.11023C247.085 3.11023 246.85 3.02192 246.66 2.84531C246.477 2.66869 246.385 2.4005 246.385 2.04072C246.385 1.67441 246.477 1.40622 246.66 1.23614C246.85 1.05953 247.085 0.971219 247.366 0.971219ZM256.707 4.79789C257.983 4.79789 258.948 5.11187 259.602 5.73984C260.256 6.36126 260.583 7.36208 260.583 8.7423V15.748H258.974V8.85023C258.974 7.95407 258.768 7.28359 258.356 6.83878C257.95 6.39397 257.326 6.17156 256.482 6.17156C255.291 6.17156 254.454 6.50844 253.97 7.1822C253.486 7.85595 253.244 8.83388 253.244 10.116V15.748H251.615V4.99413H252.93L253.175 6.54442H253.263C253.492 6.16502 253.783 5.84777 254.137 5.59266C254.49 5.331 254.886 5.13477 255.324 5.00394C255.762 4.86657 256.223 4.79789 256.707 4.79789ZM272.819 4.99413V15.748H271.484L271.249 14.237H271.16C270.938 14.6099 270.65 14.9238 270.297 15.179C269.944 15.4341 269.545 15.6238 269.1 15.748C268.662 15.8789 268.194 15.9443 267.697 15.9443C266.846 15.9443 266.133 15.8069 265.558 15.5322C264.982 15.2574 264.547 14.8323 264.253 14.2566C263.965 13.681 263.821 12.9418 263.821 12.0391V4.99413H265.469V11.9214C265.469 12.8175 265.672 13.488 266.078 13.9328C266.483 14.3711 267.102 14.5902 267.932 14.5902C268.73 14.5902 269.365 14.4398 269.836 14.1389C270.313 13.838 270.657 13.3964 270.866 12.8143C271.075 12.2255 271.18 11.506 271.18 10.6556V4.99413H272.819ZM280.403 4.79789C281.319 4.79789 282.104 5.00067 282.758 5.40623C283.412 5.81179 283.913 6.38089 284.259 7.11351C284.606 7.8396 284.779 8.68997 284.779 9.66463V10.6753H277.352C277.371 11.9377 277.685 12.8993 278.294 13.56C278.902 14.2207 279.759 14.551 280.864 14.551C281.545 14.551 282.147 14.4888 282.67 14.3646C283.193 14.2403 283.736 14.0571 284.299 13.8151V15.2476C283.756 15.4897 283.216 15.6663 282.68 15.7775C282.15 15.8887 281.522 15.9443 280.796 15.9443C279.762 15.9443 278.86 15.735 278.088 15.3163C277.322 14.8911 276.727 14.2697 276.302 13.452C275.877 12.6344 275.664 11.6336 275.664 10.4496C275.664 9.29177 275.857 8.29095 276.243 7.44712C276.635 6.59675 277.185 5.94262 277.891 5.48473C278.604 5.02683 279.442 4.79789 280.403 4.79789ZM280.384 6.13232C279.514 6.13232 278.82 6.41686 278.304 6.98596C277.787 7.55505 277.479 8.34982 277.381 9.37027H283.072C283.066 8.72922 282.964 8.16666 282.768 7.68261C282.578 7.19201 282.287 6.81261 281.895 6.54442C281.502 6.26968 280.999 6.13232 280.384 6.13232ZM301.519 15.7284L299.605 9.46839C299.52 9.20019 299.439 8.93854 299.36 8.68343C299.288 8.42178 299.219 8.17321 299.154 7.93772C299.095 7.69569 299.039 7.47329 298.987 7.2705C298.941 7.06118 298.902 6.8813 298.869 6.73085H298.801C298.775 6.8813 298.739 7.06118 298.693 7.2705C298.647 7.47329 298.591 7.69569 298.526 7.93772C298.467 8.17975 298.402 8.43486 298.33 8.70305C298.258 8.9647 298.176 9.22963 298.084 9.49782L296.083 15.7284H294.248L291.285 4.9745H292.972L294.523 10.9107C294.627 11.3032 294.725 11.6924 294.817 12.0784C294.915 12.4578 294.997 12.8175 295.062 13.1577C295.134 13.4913 295.187 13.7824 295.219 14.031H295.298C295.337 13.8674 295.38 13.6712 295.425 13.4422C295.478 13.2133 295.533 12.9713 295.592 12.7161C295.658 12.4545 295.726 12.1961 295.798 11.941C295.87 11.6793 295.942 11.4341 296.014 11.2051L297.996 4.9745H299.752L301.666 11.1953C301.764 11.5093 301.859 11.8363 301.95 12.1765C302.048 12.5166 302.137 12.847 302.215 13.1675C302.294 13.4815 302.349 13.7628 302.382 14.0113H302.461C302.487 13.7889 302.536 13.5142 302.608 13.1871C302.68 12.8601 302.762 12.5003 302.853 12.1078C302.951 11.7153 303.053 11.3163 303.157 10.9107L304.727 4.9745H306.385L303.412 15.7284H301.519ZM309.977 4.99413V15.748H308.348V4.99413H309.977ZM309.182 0.971219C309.45 0.971219 309.679 1.05953 309.869 1.23614C310.065 1.40622 310.163 1.67441 310.163 2.04072C310.163 2.4005 310.065 2.66869 309.869 2.84531C309.679 3.02192 309.45 3.11023 309.182 3.11023C308.901 3.11023 308.665 3.02192 308.475 2.84531C308.292 2.66869 308.201 2.4005 308.201 2.04072C308.201 1.67441 308.292 1.40622 308.475 1.23614C308.665 1.05953 308.901 0.971219 309.182 0.971219ZM316.904 14.6099C317.172 14.6099 317.447 14.587 317.728 14.5412C318.009 14.4954 318.238 14.4398 318.415 14.3744V15.6401C318.225 15.7252 317.96 15.7971 317.62 15.856C317.286 15.9149 316.959 15.9443 316.639 15.9443C316.07 15.9443 315.553 15.8462 315.089 15.6499C314.624 15.4471 314.251 15.107 313.97 14.6295C313.695 14.152 313.558 13.4913 313.558 12.6475V6.26968H312.027V5.47491L313.568 4.83714L314.215 2.50189H315.197V4.99413H318.346V6.26968H315.197V12.5984C315.197 13.2722 315.35 13.7758 315.658 14.1094C315.972 14.4431 316.387 14.6099 316.904 14.6099ZM322.222 0.480621V5.04319C322.222 5.30484 322.215 5.56976 322.202 5.83796C322.189 6.09961 322.166 6.34164 322.134 6.56404H322.242C322.464 6.18465 322.745 5.86739 323.085 5.61228C323.432 5.35063 323.825 5.15439 324.263 5.02356C324.701 4.8862 325.166 4.81751 325.656 4.81751C326.52 4.81751 327.239 4.95488 327.815 5.22961C328.397 5.50435 328.832 5.92954 329.12 6.50517C329.414 7.08081 329.561 7.82652 329.561 8.7423V15.748H327.952V8.85023C327.952 7.95407 327.746 7.28359 327.334 6.83878C326.928 6.39397 326.304 6.17156 325.46 6.17156C324.662 6.17156 324.024 6.32528 323.547 6.63273C323.076 6.93363 322.735 7.37844 322.526 7.96715C322.323 8.55587 322.222 9.27542 322.222 10.1258V15.748H320.593V0.480621H322.222Z" fill="#1E1850"/>
<path d="M486.656 8.74805L342.642 8.74805" stroke="#CCCCCC" stroke-width="1.41017" stroke-linecap="round"/>
</svg>
