<svg width="424" height="410" viewBox="0 0 424 410" fill="none" xmlns="http://www.w3.org/2000/svg">
<path d="M350.364 144.13C360.293 138.847 367.07 129.185 368.455 117.583C368.81 114.621 369.063 111.408 369.208 108.023C369.778 94.6407 368.038 81.3178 364.012 68.3974C359.849 55.0408 352.862 43.67 343.22 34.5521C339.922 31.4219 336.173 28.8366 332.063 26.8508C313.162 17.7237 291.556 23.8009 281.836 41.0083C278.37 47.1529 275.692 54.2517 273.896 62.1031C270.192 78.1955 270.551 93.6274 274.933 107.987C279.483 122.919 288.672 134.67 302.181 142.901C312.55 149.214 325.477 150.809 340.629 147.631C344.123 146.891 347.396 145.71 350.364 144.13Z" fill="#EF4626" fill-opacity="0.15"/>
<path d="M208.506 183.081C209.018 182.809 208.487 182.964 208.288 182.994C208.088 183.024 207.672 183.143 207.329 183.25C193.778 187.458 181.207 193.664 168.753 200.494C110.668 232.828 65.0449 283.007 33.2706 338.998C24.9009 353.96 17.4374 369.279 10.8359 384.929C5.82807 396.805 -13.4894 391.894 -11.2617 379.284C-11.2004 378.946 -11.1391 378.608 -11.0898 378.251C5.90378 280.102 56.9693 184.84 142.317 122.301C150.526 116.406 159.074 110.661 168.225 105.792C191.461 94.0381 221.483 104.143 232.05 126.763C242.384 148.489 231.822 173.677 208.503 183.032L208.506 183.081Z" fill="#EF4626" fill-opacity="0.15"/>
</svg>
