<svg width="28" height="28" viewBox="0 0 28 28" fill="none" xmlns="http://www.w3.org/2000/svg">
<path d="M5.83331 24.4996V8.9933C5.83331 6.59503 7.76208 4.66626 10.1604 4.66626H12.2668" stroke="#1E1850" stroke-width="1.2" stroke-miterlimit="10"/>
<path d="M21.5172 4.66626V20.6928C21.5172 22.7992 19.8169 24.4996 17.7104 24.4996H15.1218" stroke="#1E1850" stroke-width="1.2" stroke-miterlimit="10"/>
<path d="M11.9354 9.94424C11.9354 9.48743 12.0623 9.06868 12.3034 8.72607" stroke="#1E1850" stroke-width="1.2" stroke-miterlimit="10"/>
<path d="M12.2906 8.72583C12.6966 8.11674 13.3819 7.698 14.1686 7.698C15.4121 7.698 16.4146 8.70045 16.4146 9.944C16.4146 11.1875 15.4121 12.19 14.1686 12.19C13.7752 12.19 13.3946 12.0885 13.0773 11.9108" stroke="#1E1850" stroke-width="1.2" stroke-miterlimit="10"/>
<path d="M11.9735 14.1902H16.3767C17.4045 14.1902 18.242 15.0277 18.242 16.0555V18.3142H10.1082V16.0555C10.1082 15.0277 10.9456 14.1902 11.9735 14.1902Z" stroke="#1E1850" stroke-width="1.2" stroke-miterlimit="10"/>
<path d="M9.27057 20.314H19.0921" stroke="#1E1850" stroke-width="1.2" stroke-miterlimit="10"/>
<path d="M9.27057 22.3142H19.0921" stroke="#1E1850" stroke-width="1.2" stroke-miterlimit="10"/>
</svg>
