<svg width="26" height="25" viewBox="0 0 26 25" fill="none" xmlns="http://www.w3.org/2000/svg">
<path d="M23.0034 11.5576L18.746 15.2313L20.0431 20.7253C20.1146 21.0235 20.0962 21.3363 19.9901 21.6241C19.884 21.9118 19.695 22.1617 19.447 22.3421C19.1989 22.5225 18.903 22.6254 18.5965 22.6377C18.2901 22.65 17.9868 22.5712 17.7251 22.4112L12.9474 19.4708L8.16673 22.4112C7.90507 22.5703 7.6022 22.6483 7.29627 22.6356C6.99033 22.6228 6.69501 22.5198 6.44749 22.3396C6.19997 22.1593 6.01131 21.9098 5.90528 21.6226C5.79925 21.3353 5.78059 21.0231 5.85164 20.7253L7.15346 15.2313L2.89603 11.5576C2.66452 11.3575 2.49709 11.0937 2.41464 10.799C2.3322 10.5043 2.3384 10.1919 2.43246 9.90069C2.52653 9.60951 2.70429 9.3525 2.94356 9.16175C3.18282 8.971 3.47298 8.85496 3.7778 8.82813L9.35976 8.37779L11.5131 3.1667C11.6296 2.8827 11.828 2.63977 12.083 2.4688C12.3379 2.29783 12.638 2.20654 12.945 2.20654C13.252 2.20654 13.552 2.29783 13.807 2.4688C14.062 2.63977 14.2603 2.8827 14.3769 3.1667L16.5293 8.37779L22.1112 8.82813C22.4167 8.85396 22.7077 8.96935 22.9478 9.15984C23.1879 9.35033 23.3665 9.60744 23.4612 9.89898C23.5558 10.1905 23.5623 10.5035 23.4799 10.7987C23.3974 11.0939 23.2297 11.3582 22.9977 11.5586L23.0034 11.5576Z" fill="#EF4626"/>
</svg>
