<svg width="26" height="25" viewBox="0 0 26 25" fill="none" xmlns="http://www.w3.org/2000/svg">
<path d="M23.0034 11.2373L18.746 14.911L20.0431 20.405C20.1146 20.7032 20.0962 21.016 19.9901 21.3037C19.884 21.5915 19.695 21.8414 19.447 22.0218C19.1989 22.2022 18.903 22.3051 18.5965 22.3174C18.2901 22.3297 17.9868 22.2509 17.7251 22.0909L12.9474 19.1504L8.16673 22.0909C7.90507 22.2499 7.6022 22.328 7.29627 22.3152C6.99033 22.3025 6.69501 22.1995 6.44749 22.0192C6.19997 21.839 6.01131 21.5895 5.90528 21.3023C5.79925 21.015 5.78059 20.7028 5.85164 20.405L7.15346 14.911L2.89603 11.2373C2.66452 11.0372 2.49709 10.7734 2.41464 10.4787C2.3322 10.184 2.3384 9.87156 2.43246 9.58038C2.52653 9.2892 2.70429 9.03219 2.94356 8.84144C3.18282 8.65068 3.47298 8.53465 3.7778 8.50782L9.35976 8.05748L11.5131 2.84639C11.6296 2.56238 11.828 2.31946 12.083 2.14849C12.3379 1.97752 12.638 1.88623 12.945 1.88623C13.252 1.88623 13.552 1.97752 13.807 2.14849C14.062 2.31946 14.2603 2.56238 14.3769 2.84639L16.5293 8.05748L22.1112 8.50782C22.4167 8.53365 22.7077 8.64904 22.9478 8.83953C23.1879 9.03001 23.3665 9.28713 23.4612 9.57866C23.5558 9.87019 23.5623 10.1832 23.4799 10.4784C23.3974 10.7736 23.2297 11.0379 22.9977 11.2383L23.0034 11.2373Z" fill="#1E1850"/>
</svg>
