<svg width="160" height="156" viewBox="0 0 160 156" fill="none" xmlns="http://www.w3.org/2000/svg">
<g clip-path="url(#clip0_13245_675)">
<path d="M119.188 114H40.8121C30.9748 114 23 106.025 23 96.1879V17.8121C23 7.97478 30.9748 0 40.8121 0H119.188C129.025 0 137 7.97478 137 17.8121V96.1879C137 106.025 129.025 114 119.188 114Z" fill="#CBDB2A"/>
<path d="M105.001 24.934L104.123 24.6049C104.033 24.5832 103.943 24.5677 103.853 24.5521C101.993 24.1952 101.053 25.3251 100.506 26.2098L100.488 26.2408C99.7552 27.4856 98.9978 28.777 98.3024 30.0746C97.3556 31.8937 96.4026 33.7127 95.4403 35.5442C93.8447 38.5833 92.1964 41.7248 90.5977 44.8476C89.7627 46.4836 88.9183 48.1195 88.074 49.7523L88.0429 49.8144C86.3666 53.0646 84.6314 56.4264 82.9706 59.7573C82.3373 61.0393 81.7196 62.34 81.1205 63.619C81.1888 62.9298 81.2633 62.2221 81.3502 61.5112C81.6792 58.6894 82.1138 55.8211 82.5329 53.0459C82.8278 51.0872 83.1351 49.0601 83.4021 47.0765C83.6908 45.0153 83.9888 42.8827 84.2247 40.8308L84.234 40.7376C84.2868 39.8095 84.1843 38.9713 84.085 38.1611L84.0602 38.0059C83.9143 37.2981 83.2965 35.6187 80.7449 35.299C79.8384 35.1717 78.4974 35.3052 77.2588 36.6928L77.1874 36.7766C77.1626 36.8077 77.1377 36.8387 77.1098 36.8698L77.0943 36.8884C76.9142 37.0995 76.6721 37.3882 76.4827 37.7886C76.3772 37.95 76.2716 38.1052 76.1661 38.2636L76.1226 38.3287C75.6353 39.0582 75.1293 39.8126 74.6699 40.6538C72.4938 44.4627 70.355 48.4951 68.1789 52.9031C68.213 52.6983 68.2503 52.4934 68.2844 52.2885C68.7377 49.7958 69.2281 47.3869 69.7496 44.8352C69.88 44.202 70.0073 43.5687 70.1377 42.9323C70.6188 40.5607 69.4734 39.378 68.7501 38.8875L68.5918 38.7913C67.8778 38.4032 67.1545 38.3412 66.4995 38.6081C65.4068 39.0582 65.0716 40.182 64.8449 40.9332L64.8263 40.9953C64.3917 42.6902 63.923 44.3479 63.4667 45.7913L63.4574 45.8255C62.4826 49.1781 61.719 52.0836 61.0485 54.9861L61.0329 55.0668C60.8343 56.1812 60.8467 56.8486 61.4489 57.6371C60.8436 61.4864 60.291 64.96 59.7167 68.3809L59.7012 68.4647L59.6919 68.6106C59.6857 68.7347 59.664 68.8838 59.636 69.0514C59.6112 69.2097 59.5833 69.3866 59.5646 69.5822L58.6365 75.7131L58.6489 75.9148C58.6613 76.129 58.7793 77.2404 59.7167 78.0195C60.1638 78.392 60.9429 78.8049 62.1101 78.6621C63.2556 78.5224 64.2489 77.8302 64.7673 76.7965L64.8015 76.7251C64.9257 76.4457 65.0126 76.1725 65.084 75.9459C65.1274 75.8062 65.174 75.6603 65.2175 75.561L65.264 75.443C65.621 74.4403 65.9718 73.419 66.3133 72.4319L66.3226 72.404C66.9993 70.439 67.7008 68.4088 68.4521 66.4749C70.8175 60.3067 73.7324 54.5732 76.2747 49.7741L76.2872 49.7523C76.3027 49.7244 76.3151 49.6965 76.3306 49.6685C75.5763 54.0983 74.9958 58.5156 74.6047 62.8398C74.2291 66.5618 74.0552 70.29 73.8876 73.9095V73.953C73.8721 74.6794 73.9248 75.3871 73.9776 76.0856C74.0024 76.396 74.0242 76.7064 74.0428 77.0262L74.0521 77.141C74.1763 78.1561 74.7909 79.0129 75.6849 79.4288C77.3923 80.267 79.5901 79.7082 80.6952 78.1468L80.7107 78.122C81.2664 77.3055 81.673 76.5729 81.9462 75.9024C82.0083 75.7658 82.0766 75.6324 82.148 75.4896C82.2349 75.3157 82.3249 75.1357 82.4149 74.937C82.5826 74.5893 85.0815 69.4177 88.2354 62.9081C88.3844 62.607 91.4762 56.414 94.8971 49.7244C94.3042 52.7107 93.792 55.5107 93.3822 57.7799C91.6035 67.0678 89.5857 77.5973 88.2354 88.0773C88.0833 89.3158 87.987 90.5731 87.897 91.793L87.8504 92.3921V92.4449C87.7884 93.7921 88.1205 94.9159 88.8345 95.7882C89.3312 96.468 90.1165 96.9057 90.9919 96.9895C91.2279 97.0112 91.4669 97.0081 91.7028 96.9802C92.4478 96.8902 93.1525 96.5487 93.6709 96.0365C94.5246 95.2542 94.6829 94.0591 94.062 93.1216C93.8727 92.7026 93.9006 92.119 94.0155 91.3119C94.4687 87.922 94.9343 84.4142 95.5955 80.9406C96.7503 74.4062 97.753 68.8869 98.8798 63.2123C100.271 56.3395 101.546 50.3328 102.776 44.8476C103.781 40.3092 104.955 35.7305 106.091 31.2883L106.11 31.2076C106.153 30.9996 106.2 30.7886 106.249 30.5775C106.457 29.6648 106.696 28.6342 106.572 27.4919C106.516 26.3743 105.939 25.4493 104.998 24.9371" fill="#1E1850"/>
<path d="M81.5459 30.037C82.6479 30.037 83.7158 29.4969 84.4359 28.5253C84.6191 28.2769 84.8084 28.0038 84.9978 27.7058C85.7428 26.5386 86.2923 25.2658 86.6337 23.9186C86.9814 22.5279 86.9938 21.1806 86.6679 19.9079C86.5561 19.4733 86.3792 19.0636 86.1402 18.6911C85.0413 16.9775 82.9273 16.4933 81.2199 17.5704C80.6115 17.9553 80.0186 18.4613 79.4567 19.0791C78.3082 20.3394 77.5321 21.7363 77.1503 23.2263C76.7498 24.7754 76.902 26.2623 77.5973 27.6406C78.1312 28.696 79.1246 29.4534 80.5525 29.888C80.8816 29.9874 81.2168 30.037 81.5459 30.037Z" fill="#EF4626"/>
<path d="M71.8947 30.2209C71.9351 30.2053 71.8947 30.2115 71.8792 30.2115C71.8637 30.2115 71.8326 30.2178 71.8078 30.2209C70.7772 30.3854 69.79 30.7175 68.8029 31.0994C64.19 32.9122 60.2321 36.2524 57.1899 40.2103C56.3859 41.2688 55.6409 42.3677 54.9549 43.5008C54.4334 44.3607 53.1141 43.7522 53.4431 42.8023C53.4524 42.7775 53.4618 42.7496 53.4711 42.7247C56.0228 35.3335 60.9864 28.5663 67.9648 24.7388C68.6353 24.3787 69.3275 24.0372 70.0508 23.7703C71.8792 23.137 73.9001 24.2731 74.3533 26.1512C74.8003 27.9548 73.7014 29.7801 71.8978 30.2271" fill="#EF4626"/>
</g>
<path d="M15.8906 139.578L12.9844 151H10.2266L8.67969 145C8.64844 144.885 8.60677 144.711 8.55469 144.477C8.5026 144.242 8.44792 143.987 8.39062 143.711C8.33333 143.43 8.28125 143.167 8.23438 142.922C8.19271 142.672 8.16406 142.474 8.14844 142.328C8.13281 142.474 8.10156 142.669 8.05469 142.914C8.01302 143.159 7.96354 143.419 7.90625 143.695C7.85417 143.971 7.80208 144.229 7.75 144.469C7.69792 144.708 7.65625 144.891 7.625 145.016L6.08594 151H3.33594L0.421875 139.578H2.80469L4.26562 145.812C4.30729 146 4.35417 146.224 4.40625 146.484C4.46354 146.745 4.51823 147.018 4.57031 147.305C4.6276 147.586 4.67708 147.859 4.71875 148.125C4.76562 148.385 4.79948 148.612 4.82031 148.805C4.84635 148.607 4.88021 148.378 4.92188 148.117C4.96354 147.852 5.00781 147.583 5.05469 147.312C5.10677 147.036 5.15885 146.781 5.21094 146.547C5.26302 146.312 5.3099 146.122 5.35156 145.977L7.01562 139.578H9.30469L10.9688 145.977C11.0052 146.117 11.0469 146.307 11.0938 146.547C11.1458 146.781 11.1979 147.036 11.25 147.312C11.3021 147.589 11.349 147.859 11.3906 148.125C11.4375 148.385 11.4714 148.612 11.4922 148.805C11.5286 148.544 11.5781 148.229 11.6406 147.859C11.7083 147.484 11.7786 147.112 11.8516 146.742C11.9297 146.372 11.9974 146.062 12.0547 145.812L13.5078 139.578H15.8906ZM20.7422 142.102C21.5495 142.102 22.2448 142.258 22.8281 142.57C23.4115 142.878 23.862 143.326 24.1797 143.914C24.4974 144.503 24.6562 145.221 24.6562 146.07V147.227H19.0234C19.0495 147.898 19.25 148.427 19.625 148.812C20.0052 149.193 20.5312 149.383 21.2031 149.383C21.7604 149.383 22.2708 149.326 22.7344 149.211C23.1979 149.096 23.6745 148.924 24.1641 148.695V150.539C23.7318 150.753 23.2786 150.909 22.8047 151.008C22.3359 151.107 21.7656 151.156 21.0938 151.156C20.2188 151.156 19.4427 150.995 18.7656 150.672C18.0938 150.349 17.5651 149.857 17.1797 149.195C16.7995 148.534 16.6094 147.701 16.6094 146.695C16.6094 145.674 16.7812 144.826 17.125 144.148C17.474 143.466 17.9583 142.956 18.5781 142.617C19.1979 142.273 19.9193 142.102 20.7422 142.102ZM20.7578 143.797C20.2943 143.797 19.9089 143.945 19.6016 144.242C19.2995 144.539 19.125 145.005 19.0781 145.641H22.4219C22.4167 145.286 22.3516 144.971 22.2266 144.695C22.1068 144.419 21.9245 144.201 21.6797 144.039C21.4401 143.878 21.1328 143.797 20.7578 143.797ZM28.9766 151H26.5938V138.844H28.9766V151ZM35.0312 151.156C34.1667 151.156 33.4297 151 32.8203 150.688C32.2109 150.37 31.7474 149.88 31.4297 149.219C31.112 148.557 30.9531 147.711 30.9531 146.68C30.9531 145.612 31.1328 144.742 31.4922 144.07C31.8568 143.393 32.3594 142.896 33 142.578C33.6458 142.26 34.3932 142.102 35.2422 142.102C35.8464 142.102 36.3672 142.161 36.8047 142.281C37.2474 142.396 37.6328 142.534 37.9609 142.695L37.2578 144.539C36.8828 144.388 36.5339 144.266 36.2109 144.172C35.888 144.073 35.5651 144.023 35.2422 144.023C34.8255 144.023 34.4792 144.122 34.2031 144.32C33.9271 144.513 33.7214 144.805 33.5859 145.195C33.4505 145.586 33.3828 146.076 33.3828 146.664C33.3828 147.242 33.4557 147.721 33.6016 148.102C33.7474 148.482 33.9583 148.766 34.2344 148.953C34.5104 149.135 34.8464 149.227 35.2422 149.227C35.737 149.227 36.1771 149.161 36.5625 149.031C36.9479 148.896 37.3229 148.708 37.6875 148.469V150.508C37.3229 150.737 36.9401 150.901 36.5391 151C36.1432 151.104 35.6406 151.156 35.0312 151.156ZM47.6562 146.617C47.6562 147.346 47.5573 147.992 47.3594 148.555C47.1667 149.117 46.8828 149.594 46.5078 149.984C46.138 150.37 45.6901 150.661 45.1641 150.859C44.6432 151.057 44.0547 151.156 43.3984 151.156C42.7839 151.156 42.2188 151.057 41.7031 150.859C41.1927 150.661 40.7474 150.37 40.3672 149.984C39.9922 149.594 39.7005 149.117 39.4922 148.555C39.2891 147.992 39.1875 147.346 39.1875 146.617C39.1875 145.648 39.3594 144.828 39.7031 144.156C40.0469 143.484 40.5365 142.974 41.1719 142.625C41.8073 142.276 42.5651 142.102 43.4453 142.102C44.263 142.102 44.987 142.276 45.6172 142.625C46.2526 142.974 46.75 143.484 47.1094 144.156C47.474 144.828 47.6562 145.648 47.6562 146.617ZM41.6172 146.617C41.6172 147.19 41.6797 147.672 41.8047 148.062C41.9297 148.453 42.125 148.747 42.3906 148.945C42.6562 149.143 43.0026 149.242 43.4297 149.242C43.8516 149.242 44.1927 149.143 44.4531 148.945C44.7188 148.747 44.9115 148.453 45.0312 148.062C45.1562 147.672 45.2188 147.19 45.2188 146.617C45.2188 146.039 45.1562 145.56 45.0312 145.18C44.9115 144.794 44.7188 144.505 44.4531 144.312C44.1875 144.12 43.8411 144.023 43.4141 144.023C42.7839 144.023 42.3255 144.24 42.0391 144.672C41.7578 145.104 41.6172 145.753 41.6172 146.617ZM59.8828 142.102C60.8724 142.102 61.6198 142.357 62.125 142.867C62.6354 143.372 62.8906 144.185 62.8906 145.305V151H60.5V145.898C60.5 145.273 60.3932 144.802 60.1797 144.484C59.9661 144.167 59.6354 144.008 59.1875 144.008C58.5573 144.008 58.1094 144.234 57.8438 144.688C57.5781 145.135 57.4453 145.779 57.4453 146.617V151H55.0625V145.898C55.0625 145.482 55.0156 145.133 54.9219 144.852C54.8281 144.57 54.6849 144.359 54.4922 144.219C54.2995 144.078 54.0521 144.008 53.75 144.008C53.3073 144.008 52.9583 144.12 52.7031 144.344C52.4531 144.562 52.2734 144.888 52.1641 145.32C52.0599 145.747 52.0078 146.271 52.0078 146.891V151H49.625V142.266H51.4453L51.7656 143.383H51.8984C52.0755 143.081 52.2969 142.836 52.5625 142.648C52.8333 142.461 53.1302 142.323 53.4531 142.234C53.776 142.146 54.1042 142.102 54.4375 142.102C55.0781 142.102 55.6198 142.206 56.0625 142.414C56.5104 142.622 56.8542 142.945 57.0938 143.383H57.3047C57.5651 142.935 57.9323 142.609 58.4062 142.406C58.8854 142.203 59.3776 142.102 59.8828 142.102ZM68.9453 142.102C69.7526 142.102 70.4479 142.258 71.0312 142.57C71.6146 142.878 72.0651 143.326 72.3828 143.914C72.7005 144.503 72.8594 145.221 72.8594 146.07V147.227H67.2266C67.2526 147.898 67.4531 148.427 67.8281 148.812C68.2083 149.193 68.7344 149.383 69.4062 149.383C69.9635 149.383 70.474 149.326 70.9375 149.211C71.401 149.096 71.8776 148.924 72.3672 148.695V150.539C71.9349 150.753 71.4818 150.909 71.0078 151.008C70.5391 151.107 69.9688 151.156 69.2969 151.156C68.4219 151.156 67.6458 150.995 66.9688 150.672C66.2969 150.349 65.7682 149.857 65.3828 149.195C65.0026 148.534 64.8125 147.701 64.8125 146.695C64.8125 145.674 64.9844 144.826 65.3281 144.148C65.6771 143.466 66.1615 142.956 66.7812 142.617C67.401 142.273 68.1224 142.102 68.9453 142.102ZM68.9609 143.797C68.4974 143.797 68.112 143.945 67.8047 144.242C67.5026 144.539 67.3281 145.005 67.2812 145.641H70.625C70.6198 145.286 70.5547 144.971 70.4297 144.695C70.3099 144.419 70.1276 144.201 69.8828 144.039C69.6432 143.878 69.3359 143.797 68.9609 143.797ZM83.5469 151H81.125V141.594H78.0234V139.578H86.6484V141.594H83.5469V151ZM96.1562 146.617C96.1562 147.346 96.0573 147.992 95.8594 148.555C95.6667 149.117 95.3828 149.594 95.0078 149.984C94.638 150.37 94.1901 150.661 93.6641 150.859C93.1432 151.057 92.5547 151.156 91.8984 151.156C91.2839 151.156 90.7188 151.057 90.2031 150.859C89.6927 150.661 89.2474 150.37 88.8672 149.984C88.4922 149.594 88.2005 149.117 87.9922 148.555C87.7891 147.992 87.6875 147.346 87.6875 146.617C87.6875 145.648 87.8594 144.828 88.2031 144.156C88.5469 143.484 89.0365 142.974 89.6719 142.625C90.3073 142.276 91.0651 142.102 91.9453 142.102C92.763 142.102 93.487 142.276 94.1172 142.625C94.7526 142.974 95.25 143.484 95.6094 144.156C95.974 144.828 96.1562 145.648 96.1562 146.617ZM90.1172 146.617C90.1172 147.19 90.1797 147.672 90.3047 148.062C90.4297 148.453 90.625 148.747 90.8906 148.945C91.1562 149.143 91.5026 149.242 91.9297 149.242C92.3516 149.242 92.6927 149.143 92.9531 148.945C93.2188 148.747 93.4115 148.453 93.5312 148.062C93.6562 147.672 93.7188 147.19 93.7188 146.617C93.7188 146.039 93.6562 145.56 93.5312 145.18C93.4115 144.794 93.2188 144.505 92.9531 144.312C92.6875 144.12 92.3411 144.023 91.9141 144.023C91.2839 144.023 90.8255 144.24 90.5391 144.672C90.2578 145.104 90.1172 145.753 90.1172 146.617ZM107.305 151L104.555 142.039H104.484C104.495 142.253 104.51 142.576 104.531 143.008C104.557 143.435 104.581 143.891 104.602 144.375C104.622 144.859 104.633 145.297 104.633 145.688V151H102.469V139.578H105.766L108.469 148.312H108.516L111.383 139.578H114.68V151H112.422V145.594C112.422 145.234 112.427 144.82 112.438 144.352C112.453 143.883 112.471 143.438 112.492 143.016C112.513 142.589 112.529 142.268 112.539 142.055H112.469L109.523 151H107.305ZM125.312 146.617C125.312 147.346 125.214 147.992 125.016 148.555C124.823 149.117 124.539 149.594 124.164 149.984C123.794 150.37 123.346 150.661 122.82 150.859C122.299 151.057 121.711 151.156 121.055 151.156C120.44 151.156 119.875 151.057 119.359 150.859C118.849 150.661 118.404 150.37 118.023 149.984C117.648 149.594 117.357 149.117 117.148 148.555C116.945 147.992 116.844 147.346 116.844 146.617C116.844 145.648 117.016 144.828 117.359 144.156C117.703 143.484 118.193 142.974 118.828 142.625C119.464 142.276 120.221 142.102 121.102 142.102C121.919 142.102 122.643 142.276 123.273 142.625C123.909 142.974 124.406 143.484 124.766 144.156C125.13 144.828 125.312 145.648 125.312 146.617ZM119.273 146.617C119.273 147.19 119.336 147.672 119.461 148.062C119.586 148.453 119.781 148.747 120.047 148.945C120.312 149.143 120.659 149.242 121.086 149.242C121.508 149.242 121.849 149.143 122.109 148.945C122.375 148.747 122.568 148.453 122.688 148.062C122.812 147.672 122.875 147.19 122.875 146.617C122.875 146.039 122.812 145.56 122.688 145.18C122.568 144.794 122.375 144.505 122.109 144.312C121.844 144.12 121.497 144.023 121.07 144.023C120.44 144.023 119.982 144.24 119.695 144.672C119.414 145.104 119.273 145.753 119.273 146.617ZM130.828 151.156C129.964 151.156 129.227 151 128.617 150.688C128.008 150.37 127.544 149.88 127.227 149.219C126.909 148.557 126.75 147.711 126.75 146.68C126.75 145.612 126.93 144.742 127.289 144.07C127.654 143.393 128.156 142.896 128.797 142.578C129.443 142.26 130.19 142.102 131.039 142.102C131.643 142.102 132.164 142.161 132.602 142.281C133.044 142.396 133.43 142.534 133.758 142.695L133.055 144.539C132.68 144.388 132.331 144.266 132.008 144.172C131.685 144.073 131.362 144.023 131.039 144.023C130.622 144.023 130.276 144.122 130 144.32C129.724 144.513 129.518 144.805 129.383 145.195C129.247 145.586 129.18 146.076 129.18 146.664C129.18 147.242 129.253 147.721 129.398 148.102C129.544 148.482 129.755 148.766 130.031 148.953C130.307 149.135 130.643 149.227 131.039 149.227C131.534 149.227 131.974 149.161 132.359 149.031C132.745 148.896 133.12 148.708 133.484 148.469V150.508C133.12 150.737 132.737 150.901 132.336 151C131.94 151.104 131.438 151.156 130.828 151.156ZM137.898 142.266V151H135.516V142.266H137.898ZM136.711 138.844C137.065 138.844 137.37 138.927 137.625 139.094C137.88 139.255 138.008 139.56 138.008 140.008C138.008 140.451 137.88 140.758 137.625 140.93C137.37 141.096 137.065 141.18 136.711 141.18C136.352 141.18 136.044 141.096 135.789 140.93C135.539 140.758 135.414 140.451 135.414 140.008C135.414 139.56 135.539 139.255 135.789 139.094C136.044 138.927 136.352 138.844 136.711 138.844ZM148.344 146.617C148.344 147.346 148.245 147.992 148.047 148.555C147.854 149.117 147.57 149.594 147.195 149.984C146.826 150.37 146.378 150.661 145.852 150.859C145.331 151.057 144.742 151.156 144.086 151.156C143.471 151.156 142.906 151.057 142.391 150.859C141.88 150.661 141.435 150.37 141.055 149.984C140.68 149.594 140.388 149.117 140.18 148.555C139.977 147.992 139.875 147.346 139.875 146.617C139.875 145.648 140.047 144.828 140.391 144.156C140.734 143.484 141.224 142.974 141.859 142.625C142.495 142.276 143.253 142.102 144.133 142.102C144.951 142.102 145.674 142.276 146.305 142.625C146.94 142.974 147.438 143.484 147.797 144.156C148.161 144.828 148.344 145.648 148.344 146.617ZM142.305 146.617C142.305 147.19 142.367 147.672 142.492 148.062C142.617 148.453 142.812 148.747 143.078 148.945C143.344 149.143 143.69 149.242 144.117 149.242C144.539 149.242 144.88 149.143 145.141 148.945C145.406 148.747 145.599 148.453 145.719 148.062C145.844 147.672 145.906 147.19 145.906 146.617C145.906 146.039 145.844 145.56 145.719 145.18C145.599 144.794 145.406 144.505 145.141 144.312C144.875 144.12 144.529 144.023 144.102 144.023C143.471 144.023 143.013 144.24 142.727 144.672C142.445 145.104 142.305 145.753 142.305 146.617ZM155.273 142.102C156.206 142.102 156.956 142.357 157.523 142.867C158.091 143.372 158.375 144.185 158.375 145.305V151H155.992V145.898C155.992 145.273 155.878 144.802 155.648 144.484C155.424 144.167 155.07 144.008 154.586 144.008C153.857 144.008 153.359 144.255 153.094 144.75C152.828 145.245 152.695 145.958 152.695 146.891V151H150.312V142.266H152.133L152.453 143.383H152.586C152.773 143.081 153.005 142.836 153.281 142.648C153.562 142.461 153.872 142.323 154.211 142.234C154.555 142.146 154.909 142.102 155.273 142.102Z" fill="#1E1850"/>
<defs>
<clipPath id="clip0_13245_675">
<rect width="114" height="114" fill="white" transform="translate(23)"/>
</clipPath>
</defs>
</svg>
