<svg width="42" height="43" viewBox="0 0 42 43" fill="none" xmlns="http://www.w3.org/2000/svg">
<rect x="0.5" y="0.525391" width="41" height="41" rx="20.5" fill="#F3F3F3" fill-opacity="0.5"/>
<rect x="0.5" y="0.525391" width="41" height="41" rx="20.5" stroke="#F3F3F3"/>
<path d="M30.4684 15.5175C30.3801 15.1719 30.2109 14.8522 29.9747 14.5849C29.7385 14.3176 29.4421 14.1102 29.11 13.98C25.8962 12.7388 20.7812 12.75 20.5 12.75C20.2188 12.75 15.1037 12.7388 11.89 13.98C11.5579 14.1102 11.2615 14.3176 11.0253 14.5849C10.7891 14.8522 10.6199 15.1719 10.5316 15.5175C10.2888 16.4531 10 18.1631 10 21C10 23.8369 10.2888 25.5469 10.5316 26.4825C10.6198 26.8283 10.789 27.1481 11.0252 27.4156C11.2614 27.6831 11.5578 27.8906 11.89 28.0209C14.9688 29.2088 19.7875 29.25 20.4381 29.25H20.5619C21.2125 29.25 26.0341 29.2088 29.11 28.0209C29.4422 27.8906 29.7386 27.6831 29.9748 27.4156C30.211 27.1481 30.3802 26.8283 30.4684 26.4825C30.7113 25.545 31 23.8369 31 21C31 18.1631 30.7113 16.4531 30.4684 15.5175ZM23.5553 21.6113L19.8053 24.2363C19.6931 24.3148 19.5616 24.3612 19.4249 24.3703C19.2883 24.3794 19.1517 24.351 19.0301 24.288C18.9085 24.225 18.8064 24.1299 18.735 24.013C18.6636 23.8962 18.6256 23.762 18.625 23.625V18.375C18.625 18.2378 18.6627 18.1032 18.7339 17.986C18.8051 17.8687 18.9071 17.7732 19.0289 17.7099C19.1506 17.6465 19.2873 17.6178 19.4242 17.6268C19.5611 17.6358 19.6929 17.6822 19.8053 17.7609L23.5553 20.3859C23.654 20.4551 23.7345 20.547 23.7901 20.6539C23.8457 20.7608 23.8747 20.8795 23.8747 21C23.8747 21.1205 23.8457 21.2392 23.7901 21.3461C23.7345 21.453 23.654 21.5449 23.5553 21.6141V21.6113Z" fill="#F3F3F3"/>
</svg>
